{"glyphs":{"0":{"ha":875,"x_min":0,"x_max":0,"o":"m 438 986 b 806 486 660 986 806 819 b 438 -14 806 153 660 -14 b 69 486 215 -14 69 153 b 438 986 69 819 215 986 m 438 28 b 556 486 521 28 556 104 b 438 944 556 868 521 944 b 319 486 354 944 319 868 b 438 28 319 104 354 28 "},"1":{"ha":583,"x_min":0,"x_max":0,"o":"m 542 28 l 542 0 l 56 0 l 56 28 l 167 46 b 181 67 181 49 181 53 l 181 842 b 56 819 142 832 97 824 l 56 847 b 340 986 167 875 246 924 l 417 986 l 417 67 b 431 46 417 53 417 49 "},"2":{"ha":778,"x_min":0,"x_max":0,"o":"m 354 986 b 708 694 544 986 708 907 b 157 194 708 483 528 363 l 722 194 l 722 0 l 42 0 l 42 160 b 458 707 321 347 458 504 b 288 939 458 869 393 939 b 161 899 232 939 185 919 b 232 796 208 872 232 835 b 146 717 232 754 197 717 b 56 807 89 717 56 756 b 354 986 56 885 142 986 "},"3":{"ha":764,"x_min":0,"x_max":0,"o":"m 368 986 b 681 743 571 986 681 882 b 406 515 681 640 588 536 l 406 513 b 708 271 624 497 708 397 b 354 -14 708 92 544 -14 b 42 178 114 -14 42 100 b 135 272 42 229 75 272 b 221 190 186 272 221 236 b 138 86 221 151 201 111 b 293 35 163 63 218 35 b 472 256 407 33 472 121 b 292 490 472 429 396 490 l 292 532 b 458 750 393 531 458 607 b 306 939 458 844 422 939 b 175 899 247 939 200 921 b 246 796 215 876 246 842 b 160 717 246 754 211 717 b 69 807 103 717 69 756 b 368 986 69 885 156 986 "},"4":{"ha":764,"x_min":0,"x_max":0,"o":"m 625 215 l 625 63 b 639 42 625 49 626 46 l 694 28 l 694 0 l 319 0 l 319 28 l 375 42 b 389 63 389 46 389 49 l 389 215 l 14 215 l 14 289 l 546 986 l 625 986 l 625 296 l 722 296 l 722 215 m 389 296 l 389 714 l 68 296 "},"5":{"ha":764,"x_min":0,"x_max":0,"o":"m 708 290 b 354 -14 708 85 544 -14 b 42 178 114 -14 42 100 b 135 272 42 229 75 272 b 221 190 186 272 221 236 b 138 86 221 151 201 111 b 293 35 163 63 218 35 b 472 269 404 33 472 114 b 218 513 472 400 401 513 b 124 504 189 513 158 510 l 138 972 l 639 972 l 639 781 l 179 781 l 171 546 b 357 567 239 561 301 567 b 708 290 611 567 708 419 "},"6":{"ha":840,"x_min":0,"x_max":0,"o":"m 454 597 b 778 306 663 597 778 500 b 432 -14 778 119 626 -14 b 69 444 194 -14 69 190 b 494 986 69 768 242 986 b 767 807 693 986 767 885 b 676 717 767 756 733 717 b 590 796 625 717 590 754 b 661 899 590 835 614 872 b 535 939 638 919 590 939 b 324 578 422 939 342 861 b 454 597 365 590 410 597 m 431 28 b 535 306 506 28 535 97 b 400 551 535 482 494 551 b 321 540 374 551 347 546 b 319 447 319 511 319 481 b 431 28 319 128 357 28 "},"7":{"ha":708,"x_min":0,"x_max":0,"o":"m 21 722 l 49 722 l 72 750 b 121 778 93 774 100 778 l 608 778 b 118 0 344 551 181 317 l 410 0 b 701 833 428 317 440 524 l 701 972 l 49 972 "},"8":{"ha":806,"x_min":0,"x_max":0,"o":"m 515 568 b 750 271 631 499 750 425 b 393 -14 750 71 572 -14 b 56 224 156 -14 56 101 b 272 463 56 328 139 428 b 90 736 178 522 90 594 b 406 986 90 897 239 986 b 694 764 544 986 694 917 b 515 568 694 683 638 603 m 413 944 b 306 807 343 944 306 890 b 474 593 306 707 383 649 b 521 785 501 640 521 699 b 413 944 521 903 463 944 m 389 28 b 521 192 468 28 521 97 b 308 442 521 319 415 376 b 243 229 268 397 243 321 b 389 28 243 83 308 28 "},"9":{"ha":840,"x_min":0,"x_max":0,"o":"m 408 986 b 771 528 646 986 771 782 b 346 -14 771 204 599 -14 b 75 165 147 -14 75 88 b 164 257 75 217 108 257 b 250 178 215 257 250 219 b 179 74 250 139 228 100 b 306 33 204 54 251 33 b 517 394 418 33 499 111 b 386 375 475 382 431 375 b 63 667 178 375 63 472 b 408 986 63 853 214 986 m 442 422 b 519 432 467 422 493 426 b 521 525 521 461 521 492 b 410 944 521 844 483 944 b 306 667 335 944 306 875 b 442 422 306 490 347 422 "},"A":{"ha":938,"x_min":0,"x_max":0,"o":"m 924 28 l 924 0 l 542 0 l 542 28 l 597 42 b 608 65 613 46 614 51 l 521 310 l 208 310 l 138 86 b 149 61 133 72 135 65 l 235 28 l 235 0 l 14 0 l 14 28 l 74 61 b 97 86 86 68 93 74 l 335 824 l 292 944 l 292 972 l 518 972 l 851 65 b 875 42 857 51 861 46 m 506 351 l 356 767 l 222 351 "},"Á":{"ha":938,"x_min":0,"x_max":0,"o":"m 410 1028 l 385 1028 l 483 1244 b 540 1278 493 1263 513 1278 b 607 1215 583 1279 607 1249 b 575 1154 607 1196 597 1171 m 924 28 l 924 0 l 542 0 l 542 28 l 597 42 b 608 65 613 46 614 51 l 521 310 l 208 310 l 138 86 b 149 61 133 72 135 65 l 235 28 l 235 0 l 14 0 l 14 28 l 74 61 b 97 86 86 68 93 74 l 335 824 l 292 944 l 292 972 l 518 972 l 851 65 b 875 42 857 51 861 46 m 506 351 l 356 767 l 222 351 "},"Â":{"ha":938,"x_min":0,"x_max":0,"o":"m 279 1042 l 244 1042 l 404 1264 l 488 1264 l 647 1042 l 613 1042 l 446 1132 m 924 28 l 924 0 l 542 0 l 542 28 l 597 42 b 608 65 613 46 614 51 l 521 310 l 208 310 l 138 86 b 149 61 133 72 135 65 l 235 28 l 235 0 l 14 0 l 14 28 l 74 61 b 97 86 86 68 93 74 l 335 824 l 292 944 l 292 972 l 518 972 l 851 65 b 875 42 857 51 861 46 m 506 351 l 356 767 l 222 351 "},"Ä":{"ha":938,"x_min":0,"x_max":0,"o":"m 276 1042 b 165 1153 214 1042 165 1085 b 276 1264 165 1218 214 1264 b 388 1153 339 1264 388 1218 b 276 1042 388 1085 339 1042 m 568 1042 b 457 1153 506 1042 457 1085 b 568 1264 457 1218 506 1264 b 679 1153 631 1264 679 1218 b 568 1042 679 1085 631 1042 m 924 28 l 924 0 l 542 0 l 542 28 l 597 42 b 608 65 613 46 614 51 l 521 310 l 208 310 l 138 86 b 149 61 133 72 135 65 l 235 28 l 235 0 l 14 0 l 14 28 l 74 61 b 97 86 86 68 93 74 l 335 824 l 292 944 l 292 972 l 518 972 l 851 65 b 875 42 857 51 861 46 m 506 351 l 356 767 l 222 351 "},"À":{"ha":938,"x_min":0,"x_max":0,"o":"m 279 1154 b 246 1215 257 1171 246 1196 b 313 1278 246 1249 271 1279 b 369 1244 340 1278 361 1263 l 468 1028 l 444 1028 l 279 1154 m 924 28 l 924 0 l 542 0 l 542 28 l 597 42 b 608 65 613 46 614 51 l 521 310 l 208 310 l 138 86 b 149 61 133 72 135 65 l 235 28 l 235 0 l 14 0 l 14 28 l 74 61 b 97 86 86 68 93 74 l 335 824 l 292 944 l 292 972 l 518 972 l 851 65 b 875 42 857 51 861 46 m 506 351 l 356 767 l 222 351 "},"Å":{"ha":938,"x_min":0,"x_max":0,"o":"m 424 1035 b 300 1158 351 1035 300 1088 b 424 1281 300 1226 351 1281 b 546 1158 492 1281 546 1226 b 424 1035 546 1088 492 1035 m 425 1243 b 339 1158 374 1243 339 1207 b 425 1074 339 1113 374 1074 b 510 1158 475 1074 510 1113 b 425 1243 510 1207 472 1243 m 924 28 l 924 0 l 542 0 l 542 28 l 597 42 b 608 65 613 46 614 51 l 521 310 l 208 310 l 138 86 b 149 61 133 72 135 65 l 235 28 l 235 0 l 14 0 l 14 28 l 74 61 b 97 86 86 68 93 74 l 335 824 l 292 944 l 292 972 l 518 972 l 851 65 b 875 42 857 51 861 46 m 506 351 l 356 767 l 222 351 "},"Ã":{"ha":938,"x_min":0,"x_max":0,"o":"m 267 1092 b 203 1040 240 1092 217 1078 l 167 1042 b 322 1240 204 1201 257 1240 b 578 1190 379 1240 529 1190 b 646 1236 604 1190 631 1203 l 681 1236 b 529 1042 661 1100 594 1042 b 267 1092 464 1042 326 1092 m 924 28 l 924 0 l 542 0 l 542 28 l 597 42 b 608 65 613 46 614 51 l 521 310 l 208 310 l 138 86 b 149 61 133 72 135 65 l 235 28 l 235 0 l 14 0 l 14 28 l 74 61 b 97 86 86 68 93 74 l 335 824 l 292 944 l 292 972 l 518 972 l 851 65 b 875 42 857 51 861 46 m 506 351 l 356 767 l 222 351 "},"Æ":{"ha":1340,"x_min":0,"x_max":0,"o":"m 1264 0 l 542 0 l 542 28 l 597 42 b 611 63 611 46 611 49 l 611 476 l 363 476 l 144 86 b 154 61 138 74 140 67 l 239 28 l 239 0 l 14 0 l 14 28 l 74 61 b 101 86 86 68 96 75 l 597 972 l 1250 972 l 1278 722 l 1250 722 l 1097 907 b 1028 935 1072 936 1049 935 l 875 935 b 847 907 856 935 847 928 l 847 521 l 1115 521 l 1115 476 l 847 476 l 847 67 b 875 39 847 46 856 39 l 1042 39 b 1111 67 1063 39 1086 36 l 1264 250 l 1292 250 m 611 910 l 604 910 l 388 521 l 611 521 "},"B":{"ha":889,"x_min":0,"x_max":0,"o":"m 529 504 b 833 243 736 499 833 378 b 508 0 833 90 717 0 l 379 0 l 42 0 l 42 28 l 97 42 b 111 63 111 46 111 49 l 111 910 b 97 931 111 924 111 928 l 42 944 l 42 972 l 467 972 l 493 972 b 799 743 685 964 799 876 b 529 507 799 604 701 514 l 529 504 m 375 935 b 347 907 356 935 347 928 l 347 525 l 417 525 b 549 722 510 525 549 586 b 424 935 549 875 517 935 l 375 935 m 435 39 b 583 264 551 39 583 132 b 419 483 583 407 531 483 l 347 483 l 347 67 b 375 39 347 46 356 39 l 435 39 "},"C":{"ha":944,"x_min":0,"x_max":0,"o":"m 604 139 b 861 292 736 139 814 197 l 889 292 b 542 -14 856 149 775 -14 b 69 486 232 -14 69 194 b 563 986 69 778 242 986 b 789 932 657 986 733 960 l 831 972 l 861 972 l 889 722 l 861 722 b 563 944 743 882 694 944 b 319 507 411 944 319 799 b 604 139 319 238 453 139 "},"Ç":{"ha":944,"x_min":0,"x_max":0,"o":"m 604 139 b 861 292 736 139 814 197 l 889 292 b 556 -14 856 151 778 -7 l 556 -50 b 708 -162 617 -50 708 -75 b 500 -292 708 -239 656 -292 l 500 -257 b 583 -201 553 -257 583 -246 b 514 -143 583 -164 563 -143 l 514 -14 b 69 486 222 -1 69 203 b 563 986 69 778 242 986 b 789 932 657 986 733 960 l 831 972 l 861 972 l 889 722 l 861 722 b 563 944 743 882 694 944 b 319 507 411 944 319 799 b 604 139 319 238 453 139 "},"D":{"ha":1042,"x_min":0,"x_max":0,"o":"m 474 972 b 972 486 799 972 972 778 b 474 0 972 194 799 0 l 42 0 l 42 28 l 97 42 b 111 63 111 46 111 49 l 111 910 b 97 931 111 924 111 928 l 42 944 l 42 972 m 475 39 b 722 486 675 39 722 215 b 475 935 722 757 675 935 l 375 935 b 347 907 356 935 347 928 l 347 67 b 375 39 347 46 356 39 "},"Ð":{"ha":1042,"x_min":0,"x_max":0,"o":"m 474 972 b 972 486 799 972 972 778 b 474 0 972 194 799 0 l 42 0 l 42 28 l 97 42 b 111 63 111 46 111 49 l 111 472 l 42 472 l 42 528 l 111 528 l 111 910 b 97 931 111 924 111 928 l 42 944 l 42 972 l 474 972 m 475 39 b 722 486 675 39 722 215 b 475 935 722 757 675 935 l 375 935 b 347 907 356 935 347 928 l 347 528 l 431 528 l 431 472 l 347 472 l 347 67 b 375 39 347 46 356 39 l 475 39 "},"E":{"ha":840,"x_min":0,"x_max":0,"o":"m 792 250 l 764 0 l 42 0 l 42 28 l 97 42 b 111 63 111 46 111 49 l 111 910 b 97 931 111 924 111 928 l 42 944 l 42 972 l 750 972 l 778 722 l 750 722 l 597 907 b 528 935 572 936 549 935 l 375 935 b 347 907 356 935 347 928 l 347 521 l 615 521 l 615 476 l 347 476 l 347 67 b 375 39 347 46 356 39 l 542 39 b 611 67 563 39 586 36 l 764 250 "},"É":{"ha":840,"x_min":0,"x_max":0,"o":"m 415 1028 l 390 1028 l 489 1244 b 546 1278 499 1263 518 1278 b 613 1215 589 1279 613 1249 b 581 1154 613 1196 603 1171 m 792 250 l 764 0 l 42 0 l 42 28 l 97 42 b 111 63 111 46 111 49 l 111 910 b 97 931 111 924 111 928 l 42 944 l 42 972 l 750 972 l 778 722 l 750 722 l 597 907 b 528 935 572 936 549 935 l 375 935 b 347 907 356 935 347 928 l 347 521 l 615 521 l 615 476 l 347 476 l 347 67 b 375 39 347 46 356 39 l 542 39 b 611 67 563 39 586 36 l 764 250 "},"Ê":{"ha":840,"x_min":0,"x_max":0,"o":"m 285 1042 l 250 1042 l 410 1264 l 493 1264 l 653 1042 l 618 1042 l 451 1132 m 792 250 l 764 0 l 42 0 l 42 28 l 97 42 b 111 63 111 46 111 49 l 111 910 b 97 931 111 924 111 928 l 42 944 l 42 972 l 750 972 l 778 722 l 750 722 l 597 907 b 528 935 572 936 549 935 l 375 935 b 347 907 356 935 347 928 l 347 521 l 615 521 l 615 476 l 347 476 l 347 67 b 375 39 347 46 356 39 l 542 39 b 611 67 563 39 586 36 l 764 250 "},"Ë":{"ha":840,"x_min":0,"x_max":0,"o":"m 282 1042 b 171 1153 219 1042 171 1085 b 282 1264 171 1218 219 1264 b 393 1153 344 1264 393 1218 b 282 1042 393 1085 344 1042 m 574 1042 b 463 1153 511 1042 463 1085 b 574 1264 463 1218 511 1264 b 685 1153 636 1264 685 1218 b 574 1042 685 1085 636 1042 m 792 250 l 764 0 l 42 0 l 42 28 l 97 42 b 111 63 111 46 111 49 l 111 910 b 97 931 111 924 111 928 l 42 944 l 42 972 l 750 972 l 778 722 l 750 722 l 597 907 b 528 935 572 936 549 935 l 375 935 b 347 907 356 935 347 928 l 347 521 l 615 521 l 615 476 l 347 476 l 347 67 b 375 39 347 46 356 39 l 542 39 b 611 67 563 39 586 36 l 764 250 "},"È":{"ha":840,"x_min":0,"x_max":0,"o":"m 285 1154 b 251 1215 263 1171 251 1196 b 318 1278 251 1249 276 1279 b 375 1244 346 1278 367 1263 l 474 1028 l 450 1028 l 285 1154 m 792 250 l 764 0 l 42 0 l 42 28 l 97 42 b 111 63 111 46 111 49 l 111 910 b 97 931 111 924 111 928 l 42 944 l 42 972 l 750 972 l 778 722 l 750 722 l 597 907 b 528 935 572 936 549 935 l 375 935 b 347 907 356 935 347 928 l 347 521 l 615 521 l 615 476 l 347 476 l 347 67 b 375 39 347 46 356 39 l 542 39 b 611 67 563 39 586 36 l 764 250 "},"F":{"ha":785,"x_min":0,"x_max":0,"o":"m 375 935 b 347 907 356 935 347 928 l 347 493 l 615 493 l 615 449 l 347 449 l 347 63 b 361 42 347 49 347 46 l 417 28 l 417 0 l 42 0 l 42 28 l 97 42 b 111 63 111 46 111 49 l 111 910 b 97 931 111 924 111 928 l 42 944 l 42 972 l 722 972 l 750 722 l 722 722 l 569 907 b 500 935 544 936 521 935 l 375 935 "},"G":{"ha":1014,"x_min":0,"x_max":0,"o":"m 944 438 l 944 410 l 917 396 b 903 375 904 390 903 389 l 903 0 l 875 0 l 789 60 b 556 -14 736 24 657 -14 b 69 486 235 -14 69 194 b 576 986 69 778 256 986 b 803 932 671 986 747 960 l 844 972 l 875 972 l 903 722 l 875 722 b 576 944 757 882 708 944 b 319 486 425 944 319 813 b 556 28 319 160 404 28 b 667 54 599 28 635 36 l 667 375 b 653 396 667 389 667 393 l 597 410 l 597 438 "},"H":{"ha":1004,"x_min":0,"x_max":0,"o":"m 914 931 b 900 910 900 928 900 924 l 900 63 b 914 42 900 49 900 46 l 969 28 l 969 0 l 594 0 l 594 28 l 650 42 b 664 63 664 46 664 49 l 664 476 l 344 476 l 344 63 b 358 42 344 49 344 46 l 414 28 l 414 0 l 39 0 l 39 28 l 94 42 b 108 63 108 46 108 49 l 108 910 b 94 931 108 924 108 928 l 39 944 l 39 972 l 414 972 l 414 944 l 358 931 b 344 910 344 928 344 924 l 344 521 l 664 521 l 664 910 b 650 931 664 924 664 928 l 594 944 l 594 972 l 969 972 l 969 944 l 914 931 "},"I":{"ha":458,"x_min":0,"x_max":0,"o":"m 347 63 b 361 42 347 49 347 46 l 417 28 l 417 0 l 42 0 l 42 28 l 97 42 b 111 63 111 46 111 49 l 111 910 b 97 931 111 924 111 928 l 42 944 l 42 972 l 417 972 l 417 944 l 361 931 b 347 910 347 928 347 924 l 347 63 "},"Í":{"ha":458,"x_min":0,"x_max":0,"o":"m 190 1028 l 289 1244 b 346 1278 299 1263 318 1278 b 413 1215 389 1279 413 1249 b 381 1154 413 1196 403 1171 l 215 1028 m 347 63 b 361 42 347 49 347 46 l 417 28 l 417 0 l 42 0 l 42 28 l 97 42 b 111 63 111 46 111 49 l 111 910 b 97 931 111 924 111 928 l 42 944 l 42 972 l 417 972 l 417 944 l 361 931 b 347 910 347 928 347 924 l 347 63 "},"Î":{"ha":458,"x_min":0,"x_max":0,"o":"m 251 1132 l 418 1042 l 453 1042 l 293 1264 l 210 1264 l 50 1042 l 85 1042 m 347 63 b 361 42 347 49 347 46 l 417 28 l 417 0 l 42 0 l 42 28 l 97 42 b 111 63 111 46 111 49 l 111 910 b 97 931 111 924 111 928 l 42 944 l 42 972 l 417 972 l 417 944 l 361 931 b 347 910 347 928 347 924 l 347 63 "},"Ï":{"ha":458,"x_min":0,"x_max":0,"o":"m -29 1153 b 82 1264 -29 1218 19 1264 b 193 1153 144 1264 193 1218 b 82 1042 193 1085 144 1042 b -29 1153 19 1042 -29 1085 m 263 1153 b 374 1264 263 1218 311 1264 b 485 1153 436 1264 485 1218 b 374 1042 485 1085 436 1042 b 263 1153 311 1042 263 1085 m 347 63 b 361 42 347 49 347 46 l 417 28 l 417 0 l 42 0 l 42 28 l 97 42 b 111 63 111 46 111 49 l 111 910 b 97 931 111 924 111 928 l 42 944 l 42 972 l 417 972 l 417 944 l 361 931 b 347 910 347 928 347 924 l 347 63 "},"Ì":{"ha":458,"x_min":0,"x_max":0,"o":"m 85 1154 b 51 1215 63 1171 51 1196 b 118 1278 51 1249 76 1279 b 175 1244 146 1278 167 1263 l 274 1028 l 250 1028 m 347 63 b 361 42 347 49 347 46 l 417 28 l 417 0 l 42 0 l 42 28 l 97 42 b 111 63 111 46 111 49 l 111 910 b 97 931 111 924 111 928 l 42 944 l 42 972 l 417 972 l 417 944 l 361 931 b 347 910 347 928 347 924 l 347 63 "},"J":{"ha":583,"x_min":0,"x_max":0,"o":"m 549 944 l 493 931 b 479 910 479 928 479 924 l 479 278 b 167 -14 479 117 368 -14 b 7 79 61 -14 7 18 b 88 160 7 138 47 160 b 183 19 138 160 175 121 b 243 260 226 31 243 92 l 243 910 b 229 931 243 924 243 928 l 174 944 l 174 972 l 549 972 "},"K":{"ha":972,"x_min":0,"x_max":0,"o":"m 958 28 l 958 0 l 646 0 l 385 426 l 347 386 l 347 63 b 361 42 347 49 347 46 l 417 28 l 417 0 l 42 0 l 42 28 l 97 42 b 111 63 111 46 111 49 l 111 910 b 97 931 111 924 111 928 l 42 944 l 42 972 l 417 972 l 417 944 l 361 931 b 347 910 347 928 347 924 l 347 440 l 740 865 b 749 883 747 874 749 879 b 736 900 749 889 747 896 l 649 944 l 649 972 l 931 972 l 931 944 l 822 893 b 796 872 811 889 806 883 l 556 613 l 896 58 b 924 35 906 42 908 38 "},"L":{"ha":778,"x_min":0,"x_max":0,"o":"m 736 0 l 42 0 l 42 28 l 97 42 b 111 63 111 46 111 49 l 111 910 b 97 931 111 924 111 928 l 42 944 l 42 972 l 417 972 l 417 944 l 361 931 b 347 910 347 928 347 924 l 347 67 b 375 39 347 46 356 39 l 514 39 b 583 67 535 39 558 36 l 736 250 l 764 250 "},"Ł":{"ha":778,"x_min":0,"x_max":0,"o":"m 764 250 l 736 0 l 42 0 l 42 28 l 97 42 b 111 63 111 46 111 49 l 111 385 l 42 347 l 42 403 l 111 440 l 111 910 b 97 931 111 924 111 928 l 42 944 l 42 972 l 417 972 l 417 944 l 361 931 b 347 910 347 928 347 924 l 347 567 l 431 611 l 431 556 l 347 511 l 347 67 b 375 39 347 46 356 39 l 514 39 b 583 67 535 39 558 36 l 736 250 "},"M":{"ha":1167,"x_min":0,"x_max":0,"o":"m 1069 931 b 1056 910 1056 928 1056 924 l 1056 63 b 1069 42 1056 49 1056 46 l 1125 28 l 1125 0 l 750 0 l 750 28 l 806 42 b 819 63 819 46 819 49 l 819 857 l 563 -7 l 500 -7 l 181 818 l 181 90 b 194 69 181 76 182 75 l 306 28 l 306 0 l 28 0 l 28 28 l 125 69 b 139 90 139 75 139 76 l 139 910 b 125 931 139 924 139 929 l 28 944 l 28 972 l 379 972 l 626 346 l 813 972 l 1125 972 l 1125 944 l 1069 931 "},"N":{"ha":1000,"x_min":0,"x_max":0,"o":"m 972 944 l 875 903 b 861 882 863 897 861 896 l 861 -7 l 736 -7 l 181 833 l 181 90 b 194 69 181 76 182 75 l 306 28 l 306 0 l 28 0 l 28 28 l 125 69 b 139 90 139 75 139 76 l 139 910 b 125 931 139 924 139 929 l 28 944 l 28 972 l 379 972 l 819 306 l 819 882 b 806 903 819 896 819 899 l 694 944 l 694 972 l 972 972 "},"Ñ":{"ha":1000,"x_min":0,"x_max":0,"o":"m 243 1042 b 399 1240 281 1201 333 1240 b 654 1190 456 1240 606 1190 b 722 1236 681 1190 707 1203 l 757 1236 b 606 1042 738 1100 671 1042 b 343 1092 540 1042 403 1092 b 279 1040 317 1092 293 1078 l 243 1042 m 972 944 l 875 903 b 861 882 863 897 861 896 l 861 -7 l 736 -7 l 181 833 l 181 90 b 194 69 181 76 182 75 l 306 28 l 306 0 l 28 0 l 28 28 l 125 69 b 139 90 139 75 139 76 l 139 910 b 125 931 139 924 139 929 l 28 944 l 28 972 l 379 972 l 819 306 l 819 882 b 806 903 819 896 819 899 l 694 944 l 694 972 l 972 972 "},"O":{"ha":1083,"x_min":0,"x_max":0,"o":"m 542 986 b 1014 486 846 986 1014 778 b 542 -14 1014 194 846 -14 b 69 486 238 -14 69 194 b 542 986 69 778 238 986 m 542 28 b 764 486 738 28 764 217 b 542 944 764 756 738 944 b 319 486 346 944 319 756 b 542 28 319 217 346 28 "},"Ó":{"ha":1083,"x_min":0,"x_max":0,"o":"m 503 1028 l 601 1244 b 658 1278 611 1263 631 1278 b 725 1215 701 1279 725 1249 b 693 1154 725 1196 715 1171 l 528 1028 m 542 986 b 1014 486 846 986 1014 778 b 542 -14 1014 194 846 -14 b 69 486 238 -14 69 194 b 542 986 69 778 238 986 m 542 28 b 764 486 738 28 764 217 b 542 944 764 756 738 944 b 319 486 346 944 319 756 b 542 28 319 217 346 28 "},"Ô":{"ha":1083,"x_min":0,"x_max":0,"o":"m 564 1132 l 731 1042 l 765 1042 l 606 1264 l 522 1264 l 363 1042 l 397 1042 m 542 986 b 1014 486 846 986 1014 778 b 542 -14 1014 194 846 -14 b 69 486 238 -14 69 194 b 542 986 69 778 238 986 m 542 28 b 764 486 738 28 764 217 b 542 944 764 756 738 944 b 319 486 346 944 319 756 b 542 28 319 217 346 28 "},"Ö":{"ha":1083,"x_min":0,"x_max":0,"o":"m 283 1153 b 394 1264 283 1218 332 1264 b 506 1153 457 1264 506 1218 b 394 1042 506 1085 457 1042 b 283 1153 332 1042 283 1085 m 575 1153 b 686 1264 575 1218 624 1264 b 797 1153 749 1264 797 1218 b 686 1042 797 1085 749 1042 b 575 1153 624 1042 575 1085 m 542 986 b 1014 486 846 986 1014 778 b 542 -14 1014 194 846 -14 b 69 486 238 -14 69 194 b 542 986 69 778 238 986 m 542 28 b 764 486 738 28 764 217 b 542 944 764 756 738 944 b 319 486 346 944 319 756 b 542 28 319 217 346 28 "},"Ò":{"ha":1083,"x_min":0,"x_max":0,"o":"m 397 1154 b 364 1215 375 1171 364 1196 b 431 1278 364 1249 389 1279 b 488 1244 458 1278 479 1263 l 586 1028 l 563 1028 m 542 986 b 1014 486 846 986 1014 778 b 542 -14 1014 194 846 -14 b 69 486 238 -14 69 194 b 542 986 69 778 238 986 m 542 28 b 764 486 738 28 764 217 b 542 944 764 756 738 944 b 319 486 346 944 319 756 b 542 28 319 217 346 28 "},"Ø":{"ha":1083,"x_min":0,"x_max":0,"o":"m 542 986 b 1014 486 846 986 1014 778 b 542 -14 1014 194 846 -14 b 69 486 238 -14 69 194 b 542 986 69 778 238 986 m 542 944 b 319 486 346 944 319 756 b 388 100 319 317 331 178 l 671 901 b 542 944 639 929 597 944 m 542 28 b 764 486 738 28 764 217 b 700 868 764 653 754 789 l 418 67 b 542 28 449 42 489 28 "},"Õ":{"ha":1083,"x_min":0,"x_max":0,"o":"m 285 1042 b 440 1240 322 1201 375 1240 b 696 1190 497 1240 647 1190 b 764 1236 722 1190 749 1203 l 799 1236 b 647 1042 779 1100 713 1042 b 385 1092 582 1042 444 1092 b 321 1040 358 1092 335 1078 l 285 1042 m 542 986 b 1014 486 846 986 1014 778 b 542 -14 1014 194 846 -14 b 69 486 238 -14 69 194 b 542 986 69 778 238 986 m 542 28 b 764 486 738 28 764 217 b 542 944 764 756 738 944 b 319 486 346 944 319 756 b 542 28 319 217 346 28 "},"Œ":{"ha":1507,"x_min":0,"x_max":0,"o":"m 1431 0 l 847 0 l 847 118 b 542 -14 786 35 689 -14 b 69 486 238 -14 69 194 b 542 986 69 778 238 986 b 847 854 689 986 786 938 l 847 972 l 1417 972 l 1444 722 l 1417 722 l 1264 907 b 1194 935 1239 936 1215 935 l 1042 935 b 1014 907 1022 935 1014 928 l 1014 521 l 1282 521 l 1282 476 l 1014 476 l 1014 67 b 1042 39 1014 46 1022 39 l 1208 39 b 1278 67 1229 39 1253 36 l 1431 250 l 1458 250 m 542 28 b 764 486 738 28 764 217 b 542 944 764 756 738 944 b 319 486 346 944 319 756 b 542 28 319 217 346 28 "},"P":{"ha":847,"x_min":0,"x_max":0,"o":"m 486 972 b 819 692 694 972 819 865 b 419 393 819 532 711 393 l 347 393 l 347 63 b 361 42 347 49 347 46 l 417 28 l 417 0 l 42 0 l 42 28 l 97 42 b 111 63 111 46 111 49 l 111 910 b 97 931 111 924 111 928 l 42 944 l 42 972 l 429 972 l 486 972 m 407 431 b 569 685 542 431 569 556 b 431 935 569 803 538 935 l 403 935 l 375 935 b 347 907 356 935 347 928 l 347 431 l 407 431 "},"Þ":{"ha":858,"x_min":0,"x_max":0,"o":"m 486 785 b 819 504 694 785 819 678 b 419 201 819 344 711 201 l 347 201 l 347 63 b 361 42 347 49 347 46 l 417 28 l 417 0 l 42 0 l 42 28 l 97 42 b 111 63 111 46 111 49 l 111 910 b 97 931 111 924 111 928 l 42 944 l 42 972 l 417 972 l 417 944 l 361 931 b 347 910 347 928 347 924 l 347 785 l 486 785 m 407 250 b 569 500 542 250 569 371 b 431 747 569 618 538 747 l 347 747 l 347 250 l 407 250 "},"Q":{"ha":1083,"x_min":0,"x_max":0,"o":"m 851 -67 b 982 -3 928 -67 957 -36 l 1014 -21 b 797 -233 960 -151 894 -233 b 446 -7 685 -233 578 -128 b 69 486 203 33 69 226 b 542 986 69 778 238 986 b 1014 486 846 986 1014 778 b 642 -6 1014 228 882 35 b 851 -67 722 -42 803 -67 m 319 486 b 542 28 319 217 346 28 b 764 486 738 28 764 217 b 542 944 764 756 738 944 b 319 486 346 944 319 756 "},"R":{"ha":938,"x_min":0,"x_max":0,"o":"m 910 28 l 910 0 l 611 0 l 557 215 b 403 435 513 393 494 435 l 347 435 l 347 63 b 361 42 347 49 347 46 l 417 28 l 417 0 l 42 0 l 42 28 l 97 42 b 111 63 111 46 111 49 l 111 910 b 97 931 111 924 111 928 l 42 944 l 42 972 l 429 972 l 486 972 b 819 713 694 972 819 886 b 568 447 819 583 749 482 b 814 182 721 417 775 335 l 844 63 b 872 39 849 44 857 43 m 407 472 b 569 706 542 472 569 576 b 431 935 569 824 538 935 l 403 935 l 375 935 b 347 907 356 935 347 928 l 347 472 "},"S":{"ha":785,"x_min":0,"x_max":0,"o":"m 285 817 b 729 292 285 589 729 601 b 361 -14 729 81 547 -14 b 161 36 272 -14 208 8 l 115 0 l 83 0 l 56 250 l 83 250 b 351 28 178 90 247 28 b 514 188 447 28 514 90 b 69 708 514 432 69 403 b 410 986 69 888 219 986 b 599 938 497 986 556 964 l 643 972 l 674 972 l 701 722 l 674 722 b 417 944 582 882 521 944 b 285 817 360 944 285 911 "},"Š":{"ha":785,"x_min":0,"x_max":0,"o":"m 371 1028 l 211 1250 l 246 1250 l 413 1160 l 579 1250 l 614 1250 l 454 1028 m 285 817 b 729 292 285 589 729 601 b 361 -14 729 81 547 -14 b 161 36 272 -14 208 8 l 115 0 l 83 0 l 56 250 l 83 250 b 351 28 178 90 247 28 b 514 188 447 28 514 90 b 69 708 514 432 69 403 b 410 986 69 888 219 986 b 599 938 497 986 556 964 l 643 972 l 674 972 l 701 722 l 674 722 b 417 944 582 882 521 944 b 285 817 360 944 285 911 "},"T":{"ha":875,"x_min":0,"x_max":0,"o":"m 28 722 l 56 722 l 208 907 b 264 935 233 936 243 935 l 292 935 b 319 907 311 935 319 928 l 319 63 b 306 42 319 49 319 46 l 250 28 l 250 0 l 625 0 l 625 28 l 569 42 b 556 63 556 46 556 49 l 556 907 b 583 935 556 928 564 935 l 611 935 b 667 907 632 935 642 936 l 819 722 l 847 722 l 819 972 l 56 972 "},"U":{"ha":1028,"x_min":0,"x_max":0,"o":"m 1000 944 l 903 903 b 889 882 890 897 889 896 l 889 375 b 528 -14 889 125 754 -14 b 108 368 256 -14 108 128 l 108 910 b 94 931 108 924 108 928 l 39 944 l 39 972 l 414 972 l 414 944 l 358 931 b 344 910 344 928 344 924 l 344 361 b 586 88 344 171 442 88 b 847 382 764 88 847 199 l 847 882 b 833 903 847 896 847 899 l 722 944 l 722 972 l 1000 972 "},"Ú":{"ha":1028,"x_min":0,"x_max":0,"o":"m 521 1028 l 619 1244 b 676 1278 629 1263 649 1278 b 743 1215 719 1279 743 1249 b 711 1154 743 1196 733 1171 l 546 1028 m 1000 944 l 903 903 b 889 882 890 897 889 896 l 889 375 b 528 -14 889 125 754 -14 b 108 368 256 -14 108 128 l 108 910 b 94 931 108 924 108 928 l 39 944 l 39 972 l 414 972 l 414 944 l 358 931 b 344 910 344 928 344 924 l 344 361 b 586 88 344 171 442 88 b 847 382 764 88 847 199 l 847 882 b 833 903 847 896 847 899 l 722 944 l 722 972 l 1000 972 "},"Û":{"ha":1028,"x_min":0,"x_max":0,"o":"m 582 1132 l 749 1042 l 783 1042 l 624 1264 l 540 1264 l 381 1042 l 415 1042 m 1000 944 l 903 903 b 889 882 890 897 889 896 l 889 375 b 528 -14 889 125 754 -14 b 108 368 256 -14 108 128 l 108 910 b 94 931 108 924 108 928 l 39 944 l 39 972 l 414 972 l 414 944 l 358 931 b 344 910 344 928 344 924 l 344 361 b 586 88 344 171 442 88 b 847 382 764 88 847 199 l 847 882 b 833 903 847 896 847 899 l 722 944 l 722 972 l 1000 972 "},"Ü":{"ha":1028,"x_min":0,"x_max":0,"o":"m 301 1153 b 413 1264 301 1218 350 1264 b 524 1153 475 1264 524 1218 b 413 1042 524 1085 475 1042 b 301 1153 350 1042 301 1085 m 593 1153 b 704 1264 593 1218 642 1264 b 815 1153 767 1264 815 1218 b 704 1042 815 1085 767 1042 b 593 1153 642 1042 593 1085 m 1000 944 l 903 903 b 889 882 890 897 889 896 l 889 375 b 528 -14 889 125 754 -14 b 108 368 256 -14 108 128 l 108 910 b 94 931 108 924 108 928 l 39 944 l 39 972 l 414 972 l 414 944 l 358 931 b 344 910 344 928 344 924 l 344 361 b 586 88 344 171 442 88 b 847 382 764 88 847 199 l 847 882 b 833 903 847 896 847 899 l 722 944 l 722 972 l 1000 972 "},"Ù":{"ha":1028,"x_min":0,"x_max":0,"o":"m 415 1154 b 382 1215 393 1171 382 1196 b 449 1278 382 1249 407 1279 b 506 1244 476 1278 497 1263 l 604 1028 l 581 1028 m 1000 944 l 903 903 b 889 882 890 897 889 896 l 889 375 b 528 -14 889 125 754 -14 b 108 368 256 -14 108 128 l 108 910 b 94 931 108 924 108 928 l 39 944 l 39 972 l 414 972 l 414 944 l 358 931 b 344 910 344 928 344 924 l 344 361 b 586 88 344 171 442 88 b 847 382 764 88 847 199 l 847 882 b 833 903 847 896 847 899 l 722 944 l 722 972 l 1000 972 "},"V":{"ha":951,"x_min":0,"x_max":0,"o":"m 938 972 l 938 944 l 872 904 b 850 879 858 897 854 892 l 563 -7 l 429 -7 l 86 907 b 63 931 81 921 78 926 l 14 944 l 14 972 l 396 972 l 396 944 l 340 931 b 329 907 326 928 324 921 l 590 201 l 810 879 b 799 906 814 893 811 900 l 710 944 l 710 972 "},"W":{"ha":1410,"x_min":0,"x_max":0,"o":"m 1396 944 l 1331 904 b 1308 879 1317 897 1313 892 l 1042 -7 l 908 -7 l 726 576 l 542 -7 l 408 -7 l 86 907 b 63 931 82 921 78 926 l 14 944 l 14 972 l 396 972 l 396 944 l 340 931 b 329 907 326 928 325 921 l 569 206 l 707 642 l 625 907 b 601 931 621 921 615 926 l 553 944 l 553 972 l 931 972 l 931 944 l 875 931 b 864 907 861 928 860 921 l 1069 214 l 1268 879 b 1257 906 1272 893 1269 900 l 1168 944 l 1168 972 l 1396 972 "},"X":{"ha":917,"x_min":0,"x_max":0,"o":"m 896 28 l 896 0 l 465 0 l 465 28 l 542 46 b 549 67 556 49 554 56 l 382 382 l 203 118 b 192 90 194 107 192 97 b 211 67 192 81 200 72 l 279 28 l 279 0 l 21 0 l 21 28 l 101 67 b 150 108 115 72 136 89 l 360 424 l 104 907 b 76 928 99 918 90 924 l 21 944 l 21 972 l 438 972 l 438 944 l 378 928 b 368 907 364 924 363 918 l 528 604 l 701 861 b 713 886 708 872 713 879 b 694 907 713 896 704 901 l 624 944 l 624 972 l 882 972 l 882 944 l 799 907 b 753 865 785 900 767 885 l 550 563 l 813 67 b 840 46 818 56 826 50 "},"Y":{"ha":896,"x_min":0,"x_max":0,"o":"m 407 972 l 407 944 l 351 931 b 340 907 336 928 333 921 l 560 438 l 754 879 b 743 906 760 893 756 900 l 654 944 l 654 972 l 882 972 l 882 944 l 817 904 b 794 879 803 897 800 892 l 583 399 l 583 63 b 597 42 583 49 583 46 l 653 28 l 653 0 l 278 0 l 278 28 l 333 42 b 347 63 347 46 347 49 l 347 371 l 86 907 b 63 931 79 921 78 926 l 14 944 l 14 972 "},"Ý":{"ha":896,"x_min":0,"x_max":0,"o":"m 478 1028 l 576 1244 b 633 1278 586 1263 606 1278 b 700 1215 676 1279 700 1249 b 668 1154 700 1196 690 1171 l 503 1028 m 407 972 l 407 944 l 351 931 b 340 907 336 928 333 921 l 560 438 l 754 879 b 743 906 760 893 756 900 l 654 944 l 654 972 l 882 972 l 882 944 l 817 904 b 794 879 803 897 800 892 l 583 399 l 583 63 b 597 42 583 49 583 46 l 653 28 l 653 0 l 278 0 l 278 28 l 333 42 b 347 63 347 46 347 49 l 347 371 l 86 907 b 63 931 79 921 78 926 l 14 944 l 14 972 "},"Ÿ":{"ha":896,"x_min":0,"x_max":0,"o":"m 258 1153 b 369 1264 258 1218 307 1264 b 481 1153 432 1264 481 1218 b 369 1042 481 1085 432 1042 b 258 1153 307 1042 258 1085 m 550 1153 b 661 1264 550 1218 599 1264 b 772 1153 724 1264 772 1218 b 661 1042 772 1085 724 1042 b 550 1153 599 1042 550 1085 m 407 972 l 407 944 l 351 931 b 340 907 336 928 333 921 l 560 438 l 754 879 b 743 906 760 893 756 900 l 654 944 l 654 972 l 882 972 l 882 944 l 817 904 b 794 879 803 897 800 892 l 583 399 l 583 63 b 597 42 583 49 583 46 l 653 28 l 653 0 l 278 0 l 278 28 l 333 42 b 347 63 347 46 347 49 l 347 371 l 86 907 b 63 931 79 921 78 926 l 14 944 l 14 972 "},"Z":{"ha":833,"x_min":0,"x_max":0,"o":"m 775 972 l 775 935 l 311 39 l 535 39 b 604 67 556 39 579 36 l 757 250 l 785 250 l 757 0 l 49 0 l 49 39 l 521 935 l 317 935 b 247 907 296 935 272 936 l 94 722 l 67 722 l 94 972 "},"Ž":{"ha":833,"x_min":0,"x_max":0,"o":"m 221 1250 l 381 1028 l 464 1028 l 624 1250 l 589 1250 l 422 1160 l 256 1250 m 775 972 l 775 935 l 311 39 l 535 39 b 604 67 556 39 579 36 l 757 250 l 785 250 l 757 0 l 49 0 l 49 39 l 521 935 l 317 935 b 247 907 296 935 272 936 l 94 722 l 67 722 l 94 972 "},"a":{"ha":764,"x_min":0,"x_max":0,"o":"m 646 150 b 686 97 646 115 660 97 b 736 117 700 97 718 103 l 736 89 b 564 -14 699 22 628 -14 b 424 94 482 -14 439 24 b 225 -14 379 25 310 -14 b 49 169 118 -14 49 58 b 424 385 49 286 146 385 l 424 567 b 299 689 424 651 390 689 b 169 647 246 689 194 667 b 242 540 218 621 242 579 b 156 463 242 499 207 463 b 69 550 103 463 69 499 b 368 729 69 628 156 729 b 646 544 540 729 646 663 l 646 150 m 424 357 b 278 215 325 350 278 306 b 360 103 278 139 313 103 b 424 125 389 103 407 111 l 424 357 "},"á":{"ha":764,"x_min":0,"x_max":0,"o":"m 335 771 l 433 988 b 490 1021 443 1006 463 1021 b 557 958 533 1022 557 992 b 525 897 557 939 547 914 l 360 771 m 646 150 b 686 97 646 115 660 97 b 736 117 700 97 718 103 l 736 89 b 564 -14 699 22 628 -14 b 424 94 482 -14 439 24 b 225 -14 379 25 310 -14 b 49 169 118 -14 49 58 b 424 385 49 286 146 385 l 424 567 b 299 689 424 651 390 689 b 169 647 246 689 194 667 b 242 540 218 621 242 579 b 156 463 242 499 207 463 b 69 550 103 463 69 499 b 368 729 69 628 156 729 b 646 544 540 729 646 663 l 646 150 m 424 357 b 278 215 325 350 278 306 b 360 103 278 139 313 103 b 424 125 389 103 407 111 l 424 357 "},"â":{"ha":764,"x_min":0,"x_max":0,"o":"m 396 875 l 563 785 l 597 785 l 438 1007 l 354 1007 l 194 785 l 229 785 m 646 150 b 686 97 646 115 660 97 b 736 117 700 97 718 103 l 736 89 b 564 -14 699 22 628 -14 b 424 94 482 -14 439 24 b 225 -14 379 25 310 -14 b 49 169 118 -14 49 58 b 424 385 49 286 146 385 l 424 567 b 299 689 424 651 390 689 b 169 647 246 689 194 667 b 242 540 218 621 242 579 b 156 463 242 499 207 463 b 69 550 103 463 69 499 b 368 729 69 628 156 729 b 646 544 540 729 646 663 l 646 150 m 424 357 b 278 215 325 350 278 306 b 360 103 278 139 313 103 b 424 125 389 103 407 111 l 424 357 "},"ä":{"ha":764,"x_min":0,"x_max":0,"o":"m 115 896 b 226 1007 115 961 164 1007 b 338 896 289 1007 338 961 b 226 785 338 828 289 785 b 115 896 164 785 115 828 m 407 896 b 518 1007 407 961 456 1007 b 629 896 581 1007 629 961 b 518 785 629 828 581 785 b 407 896 456 785 407 828 m 646 150 b 686 97 646 115 660 97 b 736 117 700 97 718 103 l 736 89 b 564 -14 699 22 628 -14 b 424 94 482 -14 439 24 b 225 -14 379 25 310 -14 b 49 169 118 -14 49 58 b 424 385 49 286 146 385 l 424 567 b 299 689 424 651 390 689 b 169 647 246 689 194 667 b 242 540 218 621 242 579 b 156 463 242 499 207 463 b 69 550 103 463 69 499 b 368 729 69 628 156 729 b 646 544 540 729 646 663 l 646 150 m 424 357 b 278 215 325 350 278 306 b 360 103 278 139 313 103 b 424 125 389 103 407 111 l 424 357 "},"à":{"ha":764,"x_min":0,"x_max":0,"o":"m 229 897 b 196 958 207 914 196 939 b 263 1021 196 992 221 1022 b 319 988 290 1021 311 1006 l 418 771 l 394 771 m 646 150 b 686 97 646 115 660 97 b 736 117 700 97 718 103 l 736 89 b 564 -14 699 22 628 -14 b 424 94 482 -14 439 24 b 225 -14 379 25 310 -14 b 49 169 118 -14 49 58 b 424 385 49 286 146 385 l 424 567 b 299 689 424 651 390 689 b 169 647 246 689 194 667 b 242 540 218 621 242 579 b 156 463 242 499 207 463 b 69 550 103 463 69 499 b 368 729 69 628 156 729 b 646 544 540 729 646 663 l 646 150 m 424 357 b 278 215 325 350 278 306 b 360 103 278 139 313 103 b 424 125 389 103 407 111 l 424 357 "},"å":{"ha":764,"x_min":0,"x_max":0,"o":"m 250 901 b 374 1024 250 969 301 1024 b 496 901 442 1024 496 969 b 374 778 496 831 442 778 b 250 901 301 778 250 831 m 289 901 b 375 817 289 856 324 817 b 460 901 425 817 460 856 b 375 986 460 950 422 986 b 289 901 324 986 289 950 m 646 150 b 686 97 646 115 660 97 b 736 117 700 97 718 103 l 736 89 b 564 -14 699 22 628 -14 b 424 94 482 -14 439 24 b 225 -14 379 25 310 -14 b 49 169 118 -14 49 58 b 424 385 49 286 146 385 l 424 567 b 299 689 424 651 390 689 b 169 647 246 689 194 667 b 242 540 218 621 242 579 b 156 463 242 499 207 463 b 69 550 103 463 69 499 b 368 729 69 628 156 729 b 646 544 540 729 646 663 l 646 150 m 424 357 b 278 215 325 350 278 306 b 360 103 278 139 313 103 b 424 125 389 103 407 111 l 424 357 "},"ã":{"ha":764,"x_min":0,"x_max":0,"o":"m 117 785 b 272 983 154 944 207 983 b 528 933 329 983 479 933 b 596 979 554 933 581 946 l 631 979 b 479 785 611 843 544 785 b 217 835 414 785 276 835 b 153 783 190 835 167 821 l 117 785 m 646 150 b 686 97 646 115 660 97 b 736 117 700 97 718 103 l 736 89 b 564 -14 699 22 628 -14 b 424 94 482 -14 439 24 b 225 -14 379 25 310 -14 b 49 169 118 -14 49 58 b 424 385 49 286 146 385 l 424 567 b 299 689 424 651 390 689 b 169 647 246 689 194 667 b 242 540 218 621 242 579 b 156 463 242 499 207 463 b 69 550 103 463 69 499 b 368 729 69 628 156 729 b 646 544 540 729 646 663 l 646 150 m 424 357 b 278 215 325 350 278 306 b 360 103 278 139 313 103 b 424 125 389 103 407 111 l 424 357 "},"æ":{"ha":1104,"x_min":0,"x_max":0,"o":"m 854 118 b 1025 192 932 118 993 153 l 1042 171 b 758 -14 1022 93 936 -14 b 476 136 622 -14 529 46 b 239 -14 438 68 371 -14 b 49 169 118 -14 49 58 b 424 385 49 286 146 385 l 424 567 b 299 689 424 651 390 689 b 169 647 246 689 194 667 b 242 540 218 621 242 579 b 156 463 242 499 207 463 b 69 550 103 463 69 499 b 368 729 69 628 156 729 b 582 674 460 729 533 710 b 786 729 642 711 713 729 b 1056 479 979 729 1056 607 b 1044 389 1056 449 1051 418 l 660 389 b 854 118 661 208 742 118 m 778 694 b 660 424 715 694 665 626 l 850 424 b 858 525 856 463 858 496 b 778 694 858 649 824 694 m 367 103 b 464 160 408 103 436 124 b 424 357 438 215 424 279 b 278 215 325 350 278 306 b 367 103 278 139 317 103 "},"b":{"ha":826,"x_min":0,"x_max":0,"o":"m 97 924 b 76 944 97 938 90 944 l 28 944 l 28 972 l 299 1014 l 319 1014 l 319 610 b 518 729 368 685 432 729 b 778 372 694 729 778 592 b 403 -14 778 151 669 -14 b 97 53 278 -14 185 15 l 97 924 m 319 31 b 392 21 339 25 361 21 b 542 340 492 21 542 110 b 424 632 542 543 508 632 b 319 578 379 632 349 608 "},"c":{"ha":708,"x_min":0,"x_max":0,"o":"m 418 729 b 667 543 593 729 667 643 b 578 447 667 493 636 447 b 493 531 525 447 493 482 b 569 644 493 578 521 614 b 453 692 549 668 506 692 b 285 393 350 692 285 604 b 479 118 285 211 365 118 b 650 192 557 118 618 153 l 667 171 b 383 -14 647 93 561 -14 b 49 347 157 -14 49 153 b 418 729 49 614 232 729 "},"ç":{"ha":708,"x_min":0,"x_max":0,"o":"m 479 118 b 650 192 557 118 618 153 l 667 171 b 394 -14 647 94 564 -10 l 394 -50 b 547 -162 456 -50 547 -75 b 339 -292 547 -239 494 -292 l 339 -257 b 422 -201 392 -257 422 -246 b 353 -143 422 -164 401 -143 l 353 -12 b 49 347 147 1 49 161 b 418 729 49 614 232 729 b 667 543 593 729 667 643 b 578 447 667 493 636 447 b 493 531 525 447 493 482 b 569 644 493 578 521 614 b 453 692 549 668 506 692 b 285 393 350 692 285 604 b 479 118 285 211 365 118 "},"d":{"ha":826,"x_min":0,"x_max":0,"o":"m 507 106 b 310 -14 460 31 396 -14 b 49 344 133 -14 49 124 b 424 729 49 564 157 729 b 507 725 453 729 481 728 l 507 924 b 486 944 507 938 500 944 l 438 944 l 438 972 l 708 1014 l 729 1014 l 729 90 b 750 69 729 76 736 74 l 799 56 l 799 28 l 542 -14 l 521 -14 l 507 106 m 507 686 b 435 694 488 692 465 694 b 285 375 335 694 285 607 b 403 83 285 174 318 83 b 507 139 447 83 479 108 l 507 686 "},"ð":{"ha":792,"x_min":0,"x_max":0,"o":"m 501 864 b 743 378 646 742 743 563 b 394 -14 743 142 625 -14 b 49 301 214 -14 49 100 b 389 618 49 490 193 618 b 483 606 415 618 451 615 b 397 822 474 647 453 739 l 226 754 l 226 796 l 374 856 b 188 979 331 908 271 956 l 199 1014 b 465 893 294 994 386 951 l 650 967 l 650 925 l 501 864 m 394 21 b 507 369 468 21 507 107 b 492 565 507 417 501 521 b 421 574 471 571 442 574 b 285 278 340 574 285 493 b 394 21 285 104 333 21 "},"e":{"ha":729,"x_min":0,"x_max":0,"o":"m 681 479 b 669 389 681 449 676 418 l 285 389 b 479 118 286 210 367 118 b 650 192 557 118 618 153 l 667 171 b 383 -14 647 93 561 -14 b 49 347 157 -14 49 153 b 411 729 49 614 225 729 b 681 479 604 729 681 607 m 475 424 b 483 525 481 463 483 496 b 403 694 483 649 449 694 b 285 424 339 694 290 625 l 475 424 "},"é":{"ha":729,"x_min":0,"x_max":0,"o":"m 390 771 l 365 771 l 464 988 b 521 1021 474 1006 493 1021 b 588 958 564 1022 588 992 b 556 897 588 939 578 914 m 681 479 b 669 389 681 449 676 418 l 285 389 b 479 118 286 210 367 118 b 650 192 557 118 618 153 l 667 171 b 383 -14 647 93 561 -14 b 49 347 157 -14 49 153 b 411 729 49 614 225 729 b 681 479 604 729 681 607 m 475 424 b 483 525 481 463 483 496 b 403 694 483 649 449 694 b 285 424 339 694 290 625 l 475 424 "},"ê":{"ha":729,"x_min":0,"x_max":0,"o":"m 260 785 l 225 785 l 385 1007 l 468 1007 l 628 785 l 593 785 l 426 875 m 681 479 b 669 389 681 449 676 418 l 285 389 b 479 118 286 210 367 118 b 650 192 557 118 618 153 l 667 171 b 383 -14 647 93 561 -14 b 49 347 157 -14 49 153 b 411 729 49 614 225 729 b 681 479 604 729 681 607 m 475 424 b 483 525 481 463 483 496 b 403 694 483 649 449 694 b 285 424 339 694 290 625 l 475 424 "},"ë":{"ha":729,"x_min":0,"x_max":0,"o":"m 257 785 b 146 896 194 785 146 828 b 257 1007 146 961 194 1007 b 368 896 319 1007 368 961 b 257 785 368 828 319 785 m 549 785 b 438 896 486 785 438 828 b 549 1007 438 961 486 1007 b 660 896 611 1007 660 961 b 549 785 660 828 611 785 m 681 479 b 669 389 681 449 676 418 l 285 389 b 479 118 286 210 367 118 b 650 192 557 118 618 153 l 667 171 b 383 -14 647 93 561 -14 b 49 347 157 -14 49 153 b 411 729 49 614 225 729 b 681 479 604 729 681 607 m 475 424 b 483 525 481 463 483 496 b 403 694 483 649 449 694 b 285 424 339 694 290 625 l 475 424 "},"è":{"ha":729,"x_min":0,"x_max":0,"o":"m 260 897 b 226 958 238 914 226 939 b 293 1021 226 992 251 1022 b 350 988 321 1021 342 1006 l 449 771 l 425 771 l 260 897 m 681 479 b 669 389 681 449 676 418 l 285 389 b 479 118 286 210 367 118 b 650 192 557 118 618 153 l 667 171 b 383 -14 647 93 561 -14 b 49 347 157 -14 49 153 b 411 729 49 614 225 729 b 681 479 604 729 681 607 m 475 424 b 483 525 481 463 483 496 b 403 694 483 649 449 694 b 285 424 339 694 290 625 l 475 424 "},"f":{"ha":486,"x_min":0,"x_max":0,"o":"m 411 1028 b 569 935 517 1028 569 996 b 489 854 569 878 529 854 b 394 996 439 854 401 893 b 333 768 351 985 333 936 l 333 715 l 472 715 l 472 660 l 333 660 l 333 63 b 347 42 333 49 336 44 l 431 28 l 431 0 l 42 0 l 42 28 l 97 42 b 111 63 110 44 111 49 l 111 660 l 42 660 l 42 694 l 111 715 l 111 750 b 411 1028 111 913 210 1028 "},"g":{"ha":736,"x_min":0,"x_max":0,"o":"m 689 668 b 588 663 660 668 611 676 b 667 479 643 617 667 550 b 361 229 667 344 581 229 b 243 243 317 229 276 233 b 207 185 226 229 207 210 b 278 144 207 161 226 144 l 494 144 b 729 -56 657 144 729 40 b 325 -306 729 -222 589 -306 b 0 -154 90 -306 0 -243 b 143 -22 0 -92 61 -42 b 61 97 104 -3 61 33 b 207 254 61 175 122 222 b 56 479 100 296 56 382 b 361 729 56 614 142 729 b 563 681 449 729 514 711 b 689 792 581 732 621 792 b 764 731 731 792 764 768 b 689 668 764 688 735 668 m 361 264 b 451 479 435 264 451 351 b 361 694 451 607 435 694 b 271 479 288 694 271 607 b 361 264 271 351 288 264 m 183 -37 b 146 -143 157 -72 146 -104 b 336 -271 146 -219 217 -271 b 542 -133 481 -271 542 -210 b 426 -37 542 -86 504 -37 "},"h":{"ha":847,"x_min":0,"x_max":0,"o":"m 42 972 l 313 1018 l 333 1018 l 333 590 b 556 729 382 667 451 729 b 750 507 674 729 750 660 l 750 63 b 764 42 750 49 751 44 l 819 28 l 819 0 l 458 0 l 458 28 l 514 42 b 528 63 526 44 528 49 l 528 507 b 444 597 528 565 493 597 b 333 560 403 597 368 583 l 333 63 b 347 42 333 49 335 44 l 403 28 l 403 0 l 42 0 l 42 28 l 97 42 b 111 63 110 44 111 49 l 111 924 b 90 944 111 938 104 944 l 42 944 "},"i":{"ha":431,"x_min":0,"x_max":0,"o":"m 94 903 b 219 1021 94 967 143 1021 b 344 903 294 1021 344 967 b 219 785 344 838 294 785 b 94 903 143 785 94 838 m 42 632 l 313 733 l 333 733 l 333 63 b 347 42 333 49 335 44 l 403 28 l 403 0 l 42 0 l 42 28 l 97 42 b 111 63 110 44 111 49 l 111 583 b 90 604 111 597 104 604 l 42 604 "},"ı":{"ha":431,"x_min":0,"x_max":0,"o":"m 42 632 l 313 733 l 333 733 l 333 63 b 347 42 333 49 335 44 l 403 28 l 403 0 l 42 0 l 42 28 l 97 42 b 111 63 110 44 111 49 l 111 583 b 90 604 111 597 104 604 l 42 604 "},"í":{"ha":431,"x_min":0,"x_max":0,"o":"m 183 771 l 282 988 b 339 1021 292 1006 311 1021 b 406 958 382 1022 406 992 b 374 897 406 939 396 914 l 208 771 m 42 632 l 313 733 l 333 733 l 333 63 b 347 42 333 49 335 44 l 403 28 l 403 0 l 42 0 l 42 28 l 97 42 b 111 63 110 44 111 49 l 111 583 b 90 604 111 597 104 604 l 42 604 "},"î":{"ha":431,"x_min":0,"x_max":0,"o":"m 244 875 l 411 785 l 446 785 l 286 1007 l 203 1007 l 43 785 l 78 785 m 42 632 l 313 733 l 333 733 l 333 63 b 347 42 333 49 335 44 l 403 28 l 403 0 l 42 0 l 42 28 l 97 42 b 111 63 110 44 111 49 l 111 583 b 90 604 111 597 104 604 l 42 604 "},"ï":{"ha":431,"x_min":0,"x_max":0,"o":"m -36 896 b 75 1007 -36 961 13 1007 b 186 896 138 1007 186 961 b 75 785 186 828 138 785 b -36 896 13 785 -36 828 m 256 896 b 367 1007 256 961 304 1007 b 478 896 429 1007 478 961 b 367 785 478 828 429 785 b 256 896 304 785 256 828 m 42 632 l 313 733 l 333 733 l 333 63 b 347 42 333 49 335 44 l 403 28 l 403 0 l 42 0 l 42 28 l 97 42 b 111 63 110 44 111 49 l 111 583 b 90 604 111 597 104 604 l 42 604 "},"ì":{"ha":431,"x_min":0,"x_max":0,"o":"m 78 897 b 44 958 56 914 44 939 b 111 1021 44 992 69 1022 b 168 988 139 1021 160 1006 l 267 771 l 243 771 m 42 632 l 313 733 l 333 733 l 333 63 b 347 42 333 49 335 44 l 403 28 l 403 0 l 42 0 l 42 28 l 97 42 b 111 63 110 44 111 49 l 111 583 b 90 604 111 597 104 604 l 42 604 "},"j":{"ha":410,"x_min":0,"x_max":0,"o":"m 88 903 b 213 1021 88 967 136 1021 b 338 903 288 1021 338 967 b 213 785 338 838 288 785 b 88 903 136 785 88 838 m 319 -14 b 21 -306 319 -176 222 -306 b -139 -212 -86 -306 -139 -274 b -58 -132 -139 -156 -99 -132 b 38 -274 -8 -132 29 -171 b 97 -32 81 -262 97 -200 l 97 583 b 76 604 97 597 90 604 l 28 604 l 28 632 l 299 733 l 319 733 l 319 -14 "},"ȷ":{"ha":410,"x_min":0,"x_max":0,"o":"m 319 -14 b 21 -306 319 -176 222 -306 b -139 -212 -86 -306 -139 -274 b -58 -132 -139 -156 -99 -132 b 38 -274 -8 -132 29 -171 b 97 -32 81 -262 97 -200 l 97 583 b 76 604 97 597 90 604 l 28 604 l 28 632 l 299 733 l 319 733 l 319 -14 "},"k":{"ha":840,"x_min":0,"x_max":0,"o":"m 833 28 l 833 0 l 539 0 l 385 319 l 333 261 l 333 63 b 347 42 333 49 335 44 l 403 28 l 403 0 l 42 0 l 42 28 l 97 42 b 111 63 110 44 111 49 l 111 924 b 90 944 111 938 104 944 l 42 944 l 42 972 l 313 1014 l 333 1014 l 333 314 l 592 604 b 606 629 601 615 606 624 b 590 644 606 636 599 640 l 507 688 l 507 715 l 806 715 l 806 688 l 683 642 b 646 614 671 638 661 631 l 544 500 l 768 61 b 796 38 776 44 781 40 "},"l":{"ha":431,"x_min":0,"x_max":0,"o":"m 42 972 l 313 1014 l 333 1014 l 333 63 b 347 42 333 49 335 44 l 403 28 l 403 0 l 42 0 l 42 28 l 97 42 b 111 63 110 44 111 49 l 111 924 b 90 944 111 938 104 944 l 42 944 "},"ł":{"ha":431,"x_min":0,"x_max":0,"o":"m 333 543 l 333 63 b 347 42 333 49 335 44 l 403 28 l 403 0 l 42 0 l 42 28 l 97 42 b 111 63 110 44 111 49 l 111 415 l 42 375 l 42 431 l 111 471 l 111 924 b 90 944 111 938 104 944 l 42 944 l 42 972 l 313 1014 l 333 1014 l 333 599 l 403 639 l 403 583 "},"m":{"ha":1264,"x_min":0,"x_max":0,"o":"m 1236 28 l 1236 0 l 875 0 l 875 28 l 931 42 b 944 63 943 44 944 49 l 944 507 b 861 597 944 565 910 597 b 747 557 824 597 782 583 b 750 507 749 542 750 525 l 750 63 b 764 42 750 49 751 44 l 819 28 l 819 0 l 458 0 l 458 28 l 514 42 b 528 63 526 44 528 49 l 528 507 b 444 597 528 565 493 597 b 333 560 403 597 368 583 l 333 63 b 347 42 333 49 335 44 l 403 28 l 403 0 l 42 0 l 42 28 l 97 42 b 111 63 110 44 111 49 l 111 583 b 90 604 111 597 104 604 l 42 604 l 42 632 l 299 729 l 319 729 l 333 590 b 556 729 382 667 451 729 b 743 581 653 729 722 682 b 972 729 799 672 872 729 b 1167 507 1090 729 1167 660 l 1167 63 b 1181 42 1167 49 1168 44 "},"n":{"ha":847,"x_min":0,"x_max":0,"o":"m 42 632 l 299 729 l 319 729 l 333 590 b 556 729 382 667 451 729 b 750 507 674 729 750 660 l 750 63 b 764 42 750 49 751 44 l 819 28 l 819 0 l 458 0 l 458 28 l 514 42 b 528 63 526 44 528 49 l 528 507 b 444 597 528 565 493 597 b 333 560 403 597 368 583 l 333 63 b 347 42 333 49 335 44 l 403 28 l 403 0 l 42 0 l 42 28 l 97 42 b 111 63 110 44 111 49 l 111 583 b 90 604 111 597 104 604 l 42 604 "},"ñ":{"ha":847,"x_min":0,"x_max":0,"o":"m 181 785 b 336 983 218 944 271 983 b 592 933 393 983 543 933 b 660 979 618 933 644 946 l 694 979 b 543 785 675 843 608 785 b 281 835 478 785 340 835 b 217 783 254 835 231 821 l 181 785 m 42 632 l 299 729 l 319 729 l 333 590 b 556 729 382 667 451 729 b 750 507 674 729 750 660 l 750 63 b 764 42 750 49 751 44 l 819 28 l 819 0 l 458 0 l 458 28 l 514 42 b 528 63 526 44 528 49 l 528 507 b 444 597 528 565 493 597 b 333 560 403 597 368 583 l 333 63 b 347 42 333 49 335 44 l 403 28 l 403 0 l 42 0 l 42 28 l 97 42 b 111 63 110 44 111 49 l 111 583 b 90 604 111 597 104 604 l 42 604 "},"o":{"ha":792,"x_min":0,"x_max":0,"o":"m 396 729 b 743 358 646 729 743 553 b 396 -14 743 164 646 -14 b 49 358 146 -14 49 164 b 396 729 49 553 146 729 m 396 694 b 285 358 315 694 285 590 b 396 21 285 126 315 21 b 507 358 476 21 507 126 b 396 694 507 590 476 694 "},"ó":{"ha":792,"x_min":0,"x_max":0,"o":"m 357 771 l 456 988 b 513 1021 465 1006 485 1021 b 579 958 556 1022 579 992 b 547 897 579 939 569 914 l 382 771 m 396 729 b 743 358 646 729 743 553 b 396 -14 743 164 646 -14 b 49 358 146 -14 49 164 b 396 729 49 553 146 729 m 396 694 b 285 358 315 694 285 590 b 396 21 285 126 315 21 b 507 358 476 21 507 126 b 396 694 507 590 476 694 "},"ô":{"ha":792,"x_min":0,"x_max":0,"o":"m 418 875 l 585 785 l 619 785 l 460 1007 l 376 1007 l 217 785 l 251 785 m 396 729 b 743 358 646 729 743 553 b 396 -14 743 164 646 -14 b 49 358 146 -14 49 164 b 396 729 49 553 146 729 m 396 694 b 285 358 315 694 285 590 b 396 21 285 126 315 21 b 507 358 476 21 507 126 b 396 694 507 590 476 694 "},"ö":{"ha":792,"x_min":0,"x_max":0,"o":"m 138 896 b 249 1007 138 961 186 1007 b 360 896 311 1007 360 961 b 249 785 360 828 311 785 b 138 896 186 785 138 828 m 429 896 b 540 1007 429 961 478 1007 b 651 896 603 1007 651 961 b 540 785 651 828 603 785 b 429 896 478 785 429 828 m 396 729 b 743 358 646 729 743 553 b 396 -14 743 164 646 -14 b 49 358 146 -14 49 164 b 396 729 49 553 146 729 m 396 694 b 285 358 315 694 285 590 b 396 21 285 126 315 21 b 507 358 476 21 507 126 b 396 694 507 590 476 694 "},"ò":{"ha":792,"x_min":0,"x_max":0,"o":"m 251 897 b 218 958 229 914 218 939 b 285 1021 218 992 243 1022 b 342 988 313 1021 333 1006 l 440 771 l 417 771 m 396 729 b 743 358 646 729 743 553 b 396 -14 743 164 646 -14 b 49 358 146 -14 49 164 b 396 729 49 553 146 729 m 396 694 b 285 358 315 694 285 590 b 396 21 285 126 315 21 b 507 358 476 21 507 126 b 396 694 507 590 476 694 "},"ø":{"ha":792,"x_min":0,"x_max":0,"o":"m 396 729 b 743 358 646 729 743 553 b 396 -14 743 164 646 -14 b 49 358 146 -14 49 164 b 396 729 49 553 146 729 m 396 694 b 285 358 315 694 285 590 b 299 146 285 269 289 199 l 472 638 b 396 694 454 676 429 694 m 396 21 b 507 358 476 21 507 126 b 492 572 507 449 503 519 l 318 79 b 396 21 336 40 361 21 "},"õ":{"ha":792,"x_min":0,"x_max":0,"o":"m 139 785 b 294 983 176 944 229 983 b 550 933 351 983 501 933 b 618 979 576 933 603 946 l 653 979 b 501 785 633 843 567 785 b 239 835 436 785 299 835 b 175 783 213 835 189 821 l 139 785 m 396 729 b 743 358 646 729 743 553 b 396 -14 743 164 646 -14 b 49 358 146 -14 49 164 b 396 729 49 553 146 729 m 396 694 b 285 358 315 694 285 590 b 396 21 285 126 315 21 b 507 358 476 21 507 126 b 396 694 507 590 476 694 "},"œ":{"ha":1193,"x_min":0,"x_max":0,"o":"m 1144 479 b 1133 389 1144 449 1140 418 l 749 389 b 943 118 750 210 831 118 b 1114 192 1021 118 1082 153 l 1131 171 b 847 -14 1111 93 1025 -14 b 626 61 753 -14 681 14 b 396 -14 572 14 496 -14 b 49 358 146 -14 49 164 b 396 729 49 553 146 729 b 635 647 501 729 579 697 b 875 729 700 703 786 729 b 1144 479 1068 729 1144 607 m 396 21 b 507 358 476 21 507 126 b 396 694 507 590 476 694 b 285 358 315 694 285 590 b 396 21 285 126 315 21 m 939 424 b 947 525 944 463 947 496 b 867 694 947 649 913 694 b 749 424 803 694 754 625 l 939 424 "},"p":{"ha":826,"x_min":0,"x_max":0,"o":"m 518 729 b 778 372 694 729 778 592 b 403 -14 778 151 669 -14 b 319 -10 374 -14 346 -12 l 319 -229 b 333 -250 319 -243 321 -249 l 417 -264 l 417 -292 l 28 -292 l 28 -264 l 83 -250 b 97 -229 96 -247 97 -243 l 97 583 b 76 604 97 597 90 604 l 28 604 l 28 632 l 285 729 l 306 729 l 319 610 b 518 729 368 685 432 729 m 392 21 b 542 340 492 21 542 110 b 424 632 542 543 508 632 b 319 578 379 632 349 608 l 319 31 b 392 21 339 25 361 21 "},"þ":{"ha":826,"x_min":0,"x_max":0,"o":"m 518 729 b 778 372 694 729 778 592 b 403 -14 778 151 669 -14 b 319 -10 374 -14 346 -12 l 319 -229 b 333 -250 319 -243 321 -249 l 417 -264 l 417 -292 l 28 -292 l 28 -264 l 83 -250 b 97 -229 96 -247 97 -243 l 97 924 b 76 944 97 938 90 944 l 28 944 l 28 972 l 299 1014 l 319 1014 l 319 610 b 518 729 368 685 432 729 m 392 21 b 542 340 492 21 542 110 b 424 632 542 543 508 632 b 319 578 379 632 349 608 l 319 31 b 392 21 339 25 361 21 "},"q":{"ha":819,"x_min":0,"x_max":0,"o":"m 799 -292 l 410 -292 l 410 -264 l 493 -250 b 507 -229 506 -249 507 -243 l 507 106 b 310 -14 460 31 396 -14 b 49 344 133 -14 49 124 b 424 729 49 564 157 729 b 628 700 503 729 568 718 l 708 729 l 729 729 l 729 -229 b 743 -250 729 -243 731 -247 l 799 -264 m 403 83 b 507 139 447 83 479 108 l 507 686 b 435 694 488 692 465 694 b 285 375 335 694 285 607 b 403 83 285 174 318 83 "},"r":{"ha":618,"x_min":0,"x_max":0,"o":"m 333 581 b 515 729 358 625 415 729 b 611 629 564 729 611 697 b 525 535 611 575 571 535 b 404 619 465 535 425 575 b 333 528 382 599 354 564 l 333 63 b 347 42 333 49 336 44 l 431 28 l 431 0 l 42 0 l 42 28 l 97 42 b 111 63 110 44 111 49 l 111 583 b 90 604 111 597 104 604 l 42 604 l 42 632 l 306 729 l 319 729 l 333 581 "},"s":{"ha":618,"x_min":0,"x_max":0,"o":"m 313 729 b 521 686 378 729 465 713 l 543 507 l 515 507 l 451 597 b 313 694 424 639 390 694 b 215 606 253 694 215 661 b 576 218 215 449 576 447 b 289 -14 576 79 476 -14 b 65 29 224 -14 121 3 l 42 208 l 69 208 l 133 118 b 296 21 163 76 218 21 b 417 119 371 21 417 57 b 49 519 417 274 49 276 b 313 729 49 638 129 729 "},"š":{"ha":618,"x_min":0,"x_max":0,"o":"m 113 993 l 272 771 l 356 771 l 515 993 l 481 993 l 314 903 l 147 993 m 313 729 b 521 686 378 729 465 713 l 543 507 l 515 507 l 451 597 b 313 694 424 639 390 694 b 215 606 253 694 215 661 b 576 218 215 449 576 447 b 289 -14 576 79 476 -14 b 65 29 224 -14 121 3 l 42 208 l 69 208 l 133 118 b 296 21 163 76 218 21 b 417 119 371 21 417 57 b 49 519 417 274 49 276 b 313 729 49 638 129 729 "},"ß":{"ha":882,"x_min":0,"x_max":0,"o":"m 450 1028 b 711 853 617 1028 711 965 b 513 590 711 689 513 697 b 854 197 513 471 854 414 b 601 -14 854 65 751 -14 b 414 29 535 -14 461 7 l 389 208 l 417 208 l 453 138 b 596 21 490 63 538 21 b 683 107 654 21 683 58 b 415 453 683 256 415 297 b 532 856 415 579 532 694 b 446 993 532 944 500 993 b 333 808 364 993 333 961 l 333 0 l 42 0 l 42 28 l 97 42 b 111 63 108 44 111 49 l 111 660 l 42 660 l 42 694 l 111 715 l 111 750 b 450 1028 111 942 278 1028 "},"t":{"ha":500,"x_min":0,"x_max":0,"o":"m 319 660 l 319 192 b 394 81 319 114 331 81 b 478 94 431 81 460 88 l 486 67 b 269 -14 418 13 347 -14 b 97 153 165 -14 97 35 l 97 660 l 28 660 l 28 694 l 97 715 l 299 903 l 319 903 l 319 715 l 486 715 l 486 660 "},"u":{"ha":833,"x_min":0,"x_max":0,"o":"m 806 28 l 549 -14 l 528 -14 l 514 125 b 292 -14 465 49 396 -14 b 97 208 174 -14 97 56 l 97 583 b 76 604 97 597 90 604 l 28 604 l 28 632 l 299 729 l 319 729 l 319 208 b 403 118 319 150 354 118 b 514 157 444 118 479 132 l 514 583 b 493 604 514 597 507 604 l 444 604 l 444 632 l 715 729 l 736 729 l 736 90 b 757 69 736 76 743 74 l 806 56 "},"ú":{"ha":833,"x_min":0,"x_max":0,"o":"m 378 771 l 476 988 b 533 1021 486 1006 506 1021 b 600 958 576 1022 600 992 b 568 897 600 939 590 914 l 403 771 m 806 28 l 549 -14 l 528 -14 l 514 125 b 292 -14 465 49 396 -14 b 97 208 174 -14 97 56 l 97 583 b 76 604 97 597 90 604 l 28 604 l 28 632 l 299 729 l 319 729 l 319 208 b 403 118 319 150 354 118 b 514 157 444 118 479 132 l 514 583 b 493 604 514 597 507 604 l 444 604 l 444 632 l 715 729 l 736 729 l 736 90 b 757 69 736 76 743 74 l 806 56 "},"û":{"ha":833,"x_min":0,"x_max":0,"o":"m 439 875 l 606 785 l 640 785 l 481 1007 l 397 1007 l 238 785 l 272 785 m 806 28 l 549 -14 l 528 -14 l 514 125 b 292 -14 465 49 396 -14 b 97 208 174 -14 97 56 l 97 583 b 76 604 97 597 90 604 l 28 604 l 28 632 l 299 729 l 319 729 l 319 208 b 403 118 319 150 354 118 b 514 157 444 118 479 132 l 514 583 b 493 604 514 597 507 604 l 444 604 l 444 632 l 715 729 l 736 729 l 736 90 b 757 69 736 76 743 74 l 806 56 "},"ü":{"ha":833,"x_min":0,"x_max":0,"o":"m 158 896 b 269 1007 158 961 207 1007 b 381 896 332 1007 381 961 b 269 785 381 828 332 785 b 158 896 207 785 158 828 m 450 896 b 561 1007 450 961 499 1007 b 672 896 624 1007 672 961 b 561 785 672 828 624 785 b 450 896 499 785 450 828 m 806 28 l 549 -14 l 528 -14 l 514 125 b 292 -14 465 49 396 -14 b 97 208 174 -14 97 56 l 97 583 b 76 604 97 597 90 604 l 28 604 l 28 632 l 299 729 l 319 729 l 319 208 b 403 118 319 150 354 118 b 514 157 444 118 479 132 l 514 583 b 493 604 514 597 507 604 l 444 604 l 444 632 l 715 729 l 736 729 l 736 90 b 757 69 736 76 743 74 l 806 56 "},"ù":{"ha":833,"x_min":0,"x_max":0,"o":"m 272 897 b 239 958 250 914 239 939 b 306 1021 239 992 264 1022 b 363 988 333 1021 354 1006 l 461 771 l 438 771 m 806 28 l 549 -14 l 528 -14 l 514 125 b 292 -14 465 49 396 -14 b 97 208 174 -14 97 56 l 97 583 b 76 604 97 597 90 604 l 28 604 l 28 632 l 299 729 l 319 729 l 319 208 b 403 118 319 150 354 118 b 514 157 444 118 479 132 l 514 583 b 493 604 514 597 507 604 l 444 604 l 444 632 l 715 729 l 736 729 l 736 90 b 757 69 736 76 743 74 l 806 56 "},"v":{"ha":792,"x_min":0,"x_max":0,"o":"m 79 639 b 44 678 69 661 64 672 l 7 688 l 7 715 l 396 715 l 396 688 l 339 671 b 322 654 328 667 322 663 b 329 629 322 649 325 639 l 497 206 l 638 613 b 640 628 639 619 640 624 b 624 646 640 636 635 640 l 542 688 l 542 715 l 785 715 l 785 688 l 706 646 b 669 597 688 638 681 629 l 463 -7 l 347 -7 l 79 639 "},"w":{"ha":1208,"x_min":0,"x_max":0,"o":"m 1201 715 l 1201 688 l 1122 646 b 1086 597 1104 638 1097 629 l 879 -7 l 761 -7 l 606 454 l 449 -7 l 333 -7 l 79 639 b 44 678 71 661 64 672 l 7 688 l 7 715 l 375 715 l 375 688 l 339 672 b 322 654 328 667 322 663 b 329 629 322 649 325 640 l 483 206 l 588 510 l 544 639 b 514 678 538 660 532 668 l 493 688 l 493 715 l 847 715 l 847 688 l 794 671 b 778 654 783 667 778 663 b 785 628 778 649 781 638 l 917 219 l 1054 613 b 1057 628 1056 619 1057 624 b 1040 646 1057 636 1051 640 l 958 688 l 958 715 "},"x":{"ha":785,"x_min":0,"x_max":0,"o":"m 771 28 l 771 0 l 375 0 l 375 28 l 411 39 b 444 65 432 44 444 51 b 432 94 444 72 440 81 l 322 278 l 179 107 b 171 89 174 101 171 94 b 185 69 171 82 175 75 l 257 28 l 257 0 l 14 0 l 14 28 l 89 69 b 136 111 108 81 121 92 l 303 313 l 110 636 b 61 678 93 665 81 671 l 28 688 l 28 715 l 425 715 l 425 688 l 388 678 b 356 651 365 671 356 664 b 367 622 356 643 360 635 l 463 461 l 588 614 b 593 628 592 619 593 624 b 579 646 593 635 589 642 l 507 688 l 507 715 l 750 715 l 750 688 l 675 646 b 628 604 657 636 644 624 l 482 426 l 689 81 b 738 39 707 51 718 44 "},"y":{"ha":792,"x_min":0,"x_max":0,"o":"m 638 613 b 640 628 639 619 640 624 b 624 646 640 636 635 640 l 542 688 l 542 715 l 785 715 l 785 688 l 706 646 b 669 597 688 638 681 629 l 490 74 b 136 -299 385 -235 242 -299 b 35 -219 71 -299 35 -261 b 113 -144 35 -178 64 -144 b 251 -232 161 -144 215 -189 b 385 -85 290 -212 342 -164 l 79 639 b 44 678 69 661 64 672 l 7 688 l 7 715 l 396 715 l 396 688 l 339 671 b 322 654 328 667 322 663 b 329 629 322 649 325 639 l 497 206 "},"ý":{"ha":792,"x_min":0,"x_max":0,"o":"m 413 771 l 511 988 b 568 1021 521 1006 540 1021 b 635 958 611 1022 635 992 b 603 897 635 939 625 914 l 438 771 m 638 613 b 640 628 639 619 640 624 b 624 646 640 636 635 640 l 542 688 l 542 715 l 785 715 l 785 688 l 706 646 b 669 597 688 638 681 629 l 490 74 b 136 -299 385 -235 242 -299 b 35 -219 71 -299 35 -261 b 113 -144 35 -178 64 -144 b 251 -232 161 -144 215 -189 b 385 -85 290 -212 342 -164 l 79 639 b 44 678 69 661 64 672 l 7 688 l 7 715 l 396 715 l 396 688 l 339 671 b 322 654 328 667 322 663 b 329 629 322 649 325 639 l 497 206 "},"ÿ":{"ha":792,"x_min":0,"x_max":0,"o":"m 193 896 b 304 1007 193 961 242 1007 b 415 896 367 1007 415 961 b 304 785 415 828 367 785 b 193 896 242 785 193 828 m 485 896 b 596 1007 485 961 533 1007 b 707 896 658 1007 707 961 b 596 785 707 828 658 785 b 485 896 533 785 485 828 m 638 613 b 640 628 639 619 640 624 b 624 646 640 636 635 640 l 542 688 l 542 715 l 785 715 l 785 688 l 706 646 b 669 597 688 638 681 629 l 490 74 b 136 -299 385 -235 242 -299 b 35 -219 71 -299 35 -261 b 113 -144 35 -178 64 -144 b 251 -232 161 -144 215 -189 b 385 -85 290 -212 342 -164 l 79 639 b 44 678 69 661 64 672 l 7 688 l 7 715 l 396 715 l 396 688 l 339 671 b 322 654 328 667 322 663 b 329 629 322 649 325 639 l 497 206 "},"z":{"ha":674,"x_min":0,"x_max":0,"o":"m 625 715 l 625 681 l 278 39 l 431 39 b 500 67 451 39 476 36 l 611 208 l 639 208 l 611 0 l 35 0 l 35 35 l 379 678 l 265 678 b 196 650 244 678 218 679 l 83 507 l 56 507 l 85 715 "},"ž":{"ha":674,"x_min":0,"x_max":0,"o":"m 142 993 l 301 771 l 385 771 l 544 993 l 510 993 l 343 903 l 176 993 m 625 715 l 625 681 l 278 39 l 431 39 b 500 67 451 39 476 36 l 611 208 l 639 208 l 611 0 l 35 0 l 35 35 l 379 678 l 265 678 b 196 650 244 678 218 679 l 83 507 l 56 507 l 85 715 "},"ﬁ":{"ha":889,"x_min":0,"x_max":0,"o":"m 532 1033 b 333 785 413 1033 333 950 l 333 715 l 472 715 l 472 660 l 333 660 l 333 63 b 347 42 333 49 336 44 l 431 28 l 431 0 l 42 0 l 42 28 l 97 42 b 111 63 110 44 111 49 l 111 660 l 42 660 l 42 694 l 111 715 l 111 750 b 513 1076 115 910 246 1076 b 803 903 660 1076 803 1026 b 678 785 803 844 763 785 b 560 901 613 785 560 835 b 638 1014 560 942 583 986 b 532 1033 600 1026 565 1033 m 792 63 b 806 42 792 49 793 44 l 861 28 l 861 0 l 500 0 l 500 28 l 556 42 b 569 63 568 44 569 49 l 569 583 b 549 604 569 597 563 604 l 500 604 l 500 632 l 771 729 l 792 729 "},"ﬂ":{"ha":889,"x_min":0,"x_max":0,"o":"m 861 28 l 861 0 l 500 0 l 500 28 l 556 42 b 569 63 568 44 569 49 l 569 924 l 569 928 b 489 854 567 875 528 854 b 394 996 439 854 401 893 b 333 768 351 985 333 936 l 333 715 l 472 715 l 472 660 l 333 660 l 333 63 b 347 42 333 49 336 44 l 431 28 l 431 0 l 42 0 l 42 28 l 97 42 b 111 63 110 44 111 49 l 111 660 l 42 660 l 42 694 l 111 715 l 111 750 b 411 1028 111 913 210 1028 b 556 981 485 1028 533 1011 l 771 1014 l 792 1014 l 792 63 b 806 42 792 49 793 44 "},"ª":{"ha":597,"x_min":0,"x_max":0,"o":"m 467 600 b 494 565 467 576 476 565 b 528 578 504 565 515 569 l 528 560 b 413 492 501 515 454 492 b 319 564 358 492 329 517 b 186 492 289 518 243 492 b 69 614 115 492 69 539 b 319 757 69 692 135 757 l 319 878 b 236 960 319 935 297 960 b 150 932 200 960 167 944 b 197 861 182 914 197 886 b 140 808 197 833 175 808 b 83 867 106 808 83 833 b 282 986 83 919 140 986 b 467 864 397 986 467 942 l 467 600 m 319 739 b 222 644 253 735 222 704 b 276 568 222 593 246 568 b 319 585 296 568 308 575 l 319 739 m 528 396 l 69 396 l 69 431 l 528 431 "},"º":{"ha":603,"x_min":0,"x_max":0,"o":"m 301 986 b 533 739 468 986 533 869 b 301 492 533 610 468 492 b 69 739 135 492 69 610 b 301 986 69 869 135 986 m 301 964 b 228 739 247 964 228 893 b 301 514 228 585 247 514 b 375 739 356 514 375 585 b 301 964 375 893 356 964 m 528 396 l 69 396 l 69 431 l 528 431 "},"Δ":{"ha":903,"x_min":0,"x_max":0,"o":"m 854 0 l 611 0 l 69 0 l 49 0 l 361 979 l 493 979 m 596 42 l 331 754 l 104 42 "},"Ω":{"ha":1100,"x_min":0,"x_max":0,"o":"m 547 986 b 1019 569 811 986 1019 819 b 631 167 1019 354 867 208 l 631 125 l 963 125 b 983 139 976 125 981 126 l 997 194 l 1025 194 l 1025 0 l 589 0 l 589 208 b 769 569 728 257 769 396 b 547 944 769 750 714 944 b 325 569 381 944 325 750 b 506 208 325 396 367 257 l 506 0 l 69 0 l 69 194 l 97 194 l 111 139 b 132 125 114 126 118 125 l 464 125 l 464 167 b 75 569 228 208 75 354 b 547 986 75 819 283 986 "},"µ":{"ha":833,"x_min":0,"x_max":0,"o":"m 806 56 l 806 28 l 549 -14 l 528 -14 l 514 125 b 319 -12 469 56 408 -3 l 319 -14 b 21 -306 319 -176 222 -306 b -139 -212 -86 -306 -139 -274 b -58 -132 -139 -156 -99 -132 b 38 -274 -8 -132 29 -171 b 97 -32 81 -262 97 -200 l 97 306 l 97 583 b 76 604 97 597 90 604 l 28 604 l 28 632 l 299 729 l 319 729 l 319 208 b 403 118 319 150 354 118 b 514 157 444 118 479 132 l 514 583 b 493 604 514 597 507 604 l 444 604 l 444 632 l 715 729 l 736 729 l 736 90 b 757 69 736 76 743 74 "},"π":{"ha":875,"x_min":0,"x_max":0,"o":"m 778 674 b 764 653 764 671 764 667 l 764 63 b 778 42 764 49 764 46 l 833 28 l 833 0 l 458 0 l 458 28 l 514 42 b 528 63 528 46 528 49 l 528 671 l 347 671 l 347 63 b 361 42 347 49 347 46 l 417 28 l 417 0 l 42 0 l 42 28 l 97 42 b 111 63 111 46 111 49 l 111 653 b 97 674 111 667 111 671 l 42 688 l 42 715 l 833 715 l 833 688 l 778 674 "},"⁄":{"ha":574,"x_min":0,"x_max":0,"o":"m 136 0 l 94 0 l 438 972 l 479 972 "},"½":{"ha":1289,"x_min":0,"x_max":0,"o":"m 296 364 b 306 350 296 354 296 351 l 379 339 l 379 319 l 56 319 l 56 339 l 129 350 b 139 364 139 351 139 354 l 139 881 b 56 867 113 874 83 869 l 56 885 b 244 976 129 903 182 935 l 296 976 l 296 364 m 733 972 l 775 972 l 432 0 l 390 0 m 1233 129 l 1233 0 l 779 0 l 779 107 b 1057 471 965 231 1057 336 b 943 626 1057 581 1013 626 b 858 599 907 626 875 613 b 906 531 890 582 906 556 b 849 478 906 503 882 478 b 789 538 811 478 789 504 b 988 657 789 590 846 657 b 1224 463 1114 657 1224 604 b 856 129 1224 322 1104 242 "},"¼":{"ha":1147,"x_min":0,"x_max":0,"o":"m 296 364 b 306 350 296 354 296 351 l 379 339 l 379 319 l 56 319 l 56 339 l 129 350 b 139 364 139 351 139 354 l 139 881 b 56 867 113 874 83 869 l 56 885 b 244 976 129 903 182 935 l 296 976 l 296 364 m 775 972 l 432 0 l 390 0 l 733 972 m 1042 143 l 1042 42 b 1050 28 1042 32 1042 31 l 1088 19 l 1088 0 l 838 0 l 838 19 l 875 28 b 883 42 883 31 883 32 l 883 143 l 633 143 l 633 192 l 989 657 l 1042 657 l 1042 197 l 1106 197 l 1106 143 m 883 197 l 883 475 l 669 197 "},"¾":{"ha":1213,"x_min":0,"x_max":0,"o":"m 285 661 b 486 500 429 651 486 585 b 250 310 486 381 376 310 b 42 438 89 310 42 386 b 103 501 42 472 64 501 b 161 447 138 501 161 476 b 104 376 161 421 149 393 b 210 342 121 361 158 342 b 328 490 285 342 328 400 b 208 646 328 606 278 646 l 208 674 b 319 819 275 672 319 725 b 217 946 319 883 294 946 b 131 918 179 946 147 933 b 178 850 157 904 178 881 b 119 797 178 822 154 797 b 60 857 82 797 60 824 b 258 976 60 910 117 976 b 467 815 394 976 467 907 b 285 663 467 746 406 678 l 285 661 m 840 972 l 497 0 l 456 0 l 799 972 m 1107 143 l 1107 42 b 1115 28 1107 32 1107 31 l 1153 19 l 1153 0 l 903 0 l 903 19 l 940 28 b 949 42 949 31 949 32 l 949 143 l 699 143 l 699 192 l 1054 657 l 1107 657 l 1107 197 l 1171 197 l 1171 143 m 949 197 l 949 475 l 735 197 "},"¹":{"ha":421,"x_min":0,"x_max":0,"o":"m 379 478 l 379 458 l 56 458 l 56 478 l 129 489 b 139 503 139 490 139 493 l 139 1019 b 56 1006 113 1013 83 1008 l 56 1024 b 244 1115 129 1042 182 1074 l 296 1115 l 296 503 b 306 489 296 493 296 490 "},"²":{"ha":551,"x_min":0,"x_max":0,"o":"m 250 1115 b 486 921 378 1115 486 1063 b 119 588 486 781 367 700 l 496 588 l 496 458 l 42 458 l 42 565 b 319 929 228 689 319 794 b 206 1085 319 1039 276 1085 b 122 1057 169 1085 138 1071 b 169 989 154 1040 169 1014 b 111 936 169 961 146 936 b 51 996 74 936 51 963 b 250 1115 51 1049 108 1115 "},"³":{"ha":542,"x_min":0,"x_max":0,"o":"m 258 1115 b 467 954 394 1115 467 1046 b 285 801 467 885 406 817 l 285 800 b 486 639 429 790 486 724 b 250 449 486 519 376 449 b 42 576 89 449 42 525 b 103 640 42 611 64 640 b 161 586 138 640 161 615 b 104 515 161 560 149 532 b 210 481 121 500 158 481 b 328 629 285 481 328 539 b 208 785 328 744 278 785 l 208 813 b 319 958 275 811 319 864 b 217 1085 319 1022 294 1085 b 131 1057 179 1085 147 1072 b 178 989 157 1043 178 1019 b 119 936 178 961 154 936 b 60 996 82 936 60 963 b 258 1115 60 1049 117 1115 "},"*":{"ha":614,"x_min":0,"x_max":0,"o":"m 111 792 b 146 838 111 811 126 838 b 282 801 160 838 217 808 b 160 871 231 843 172 858 b 165 931 144 885 151 917 b 226 938 181 944 211 951 b 297 815 238 928 253 861 b 257 951 293 882 257 936 b 307 986 257 971 288 986 b 357 951 326 986 357 971 b 317 815 357 936 319 882 b 386 938 361 861 376 928 b 449 931 403 951 433 944 b 454 871 463 917 468 885 b 332 801 442 858 383 843 b 468 838 397 808 454 838 b 503 792 488 838 503 811 b 468 743 503 772 488 743 b 332 781 454 743 397 774 b 454 711 383 739 442 724 b 449 653 468 697 463 667 b 386 646 433 639 403 631 b 317 768 376 656 361 721 b 357 629 319 699 357 646 b 307 596 357 610 326 596 b 257 629 288 596 257 610 b 297 768 257 646 293 699 b 226 646 253 721 238 656 b 165 653 211 631 181 639 b 160 711 151 667 144 697 b 282 781 172 724 231 739 b 146 743 217 774 160 743 b 111 792 126 743 111 772 "},"\\":{"ha":574,"x_min":0,"x_max":0,"o":"m 136 972 l 479 0 l 438 0 l 94 972 "},"·":{"ha":375,"x_min":0,"x_max":0,"o":"m 83 375 b 188 479 83 432 132 479 b 292 375 244 479 292 432 b 188 271 292 319 244 271 b 83 375 132 271 83 319 "},"•":{"ha":472,"x_min":0,"x_max":0,"o":"m 236 299 b 83 451 151 299 83 367 b 236 604 83 536 151 604 b 389 451 321 604 389 536 b 236 299 389 367 321 299 "},":":{"ha":347,"x_min":0,"x_max":0,"o":"m 69 479 b 174 583 69 536 118 583 b 278 479 231 583 278 536 b 174 375 278 424 231 375 b 69 479 118 375 69 424 m 69 97 b 174 201 69 154 118 201 b 278 97 231 201 278 154 b 174 -7 278 42 231 -7 b 69 97 118 -7 69 42 "},",":{"ha":361,"x_min":0,"x_max":0,"o":"m 171 199 b 292 50 268 199 292 113 b 106 -204 292 -89 193 -171 l 92 -174 b 226 -29 175 -139 226 -75 b 69 96 169 -22 69 -8 b 171 199 69 156 119 199 "},"…":{"ha":903,"x_min":0,"x_max":0,"o":"m 69 97 b 174 201 69 154 118 201 b 278 97 231 201 278 154 b 174 -7 278 42 231 -7 b 69 97 118 -7 69 42 m 347 97 b 451 201 347 154 396 201 b 556 97 508 201 556 154 b 451 -7 556 42 508 -7 b 347 97 396 -7 347 42 m 625 97 b 729 201 625 154 674 201 b 833 97 786 201 833 154 b 729 -7 833 42 786 -7 b 625 97 674 -7 625 42 "},"!":{"ha":389,"x_min":0,"x_max":0,"o":"m 174 264 b 83 903 161 531 83 782 b 194 1014 83 982 131 1014 b 306 903 258 1014 306 982 b 215 264 306 782 225 531 l 174 264 m 90 97 b 194 201 90 154 139 201 b 299 97 251 201 299 154 b 194 -7 299 42 251 -7 b 90 97 139 -7 90 42 "},"¡":{"ha":389,"x_min":0,"x_max":0,"o":"m 90 625 b 194 729 90 681 139 729 b 299 625 251 729 299 681 b 194 521 299 568 251 521 b 90 625 139 521 90 568 m 215 458 b 306 -194 225 192 306 -74 b 194 -306 306 -274 258 -306 b 83 -194 131 -306 83 -274 b 174 458 83 -74 161 192 "},"#":{"ha":694,"x_min":0,"x_max":0,"o":"m 500 556 l 500 417 l 611 417 l 611 333 l 500 333 l 500 222 l 417 222 l 417 333 l 278 333 l 278 222 l 194 222 l 194 333 l 83 333 l 83 417 l 194 417 l 194 556 l 83 556 l 83 639 l 194 639 l 194 750 l 278 750 l 278 639 l 417 639 l 417 750 l 500 750 l 500 639 l 611 639 l 611 556 m 417 556 l 278 556 l 278 417 l 417 417 "},".":{"ha":347,"x_min":0,"x_max":0,"o":"m 69 97 b 174 201 69 154 118 201 b 278 97 231 201 278 154 b 174 -7 278 42 231 -7 b 69 97 118 -7 69 42 "},"?":{"ha":771,"x_min":0,"x_max":0,"o":"m 368 986 b 701 722 540 986 701 910 b 378 463 701 553 560 472 l 354 271 l 299 271 l 271 493 l 299 493 b 479 722 397 493 479 569 b 299 946 479 883 397 946 b 169 904 246 946 194 924 b 242 797 218 878 242 836 b 156 719 242 756 207 719 b 69 807 103 719 69 756 b 368 986 69 885 156 986 m 326 201 b 431 97 383 201 431 154 b 326 -7 431 42 383 -7 b 222 97 271 -7 222 42 b 326 201 222 154 271 201 "},"¿":{"ha":771,"x_min":0,"x_max":0,"o":"m 444 521 b 340 625 388 521 340 568 b 444 729 340 681 388 729 b 549 625 500 729 549 681 b 444 521 549 568 500 521 m 615 -39 b 701 -126 668 -39 701 -75 b 403 -306 701 -204 615 -306 b 69 -42 232 -306 69 -229 b 392 218 69 128 211 208 l 417 451 l 472 451 l 500 188 l 474 188 b 292 -42 375 188 292 113 b 474 -265 292 -203 375 -265 b 601 -224 525 -265 578 -243 b 529 -117 554 -197 529 -156 b 615 -39 529 -75 564 -39 "},"\"":{"ha":569,"x_min":0,"x_max":0,"o":"m 76 865 b 69 897 74 875 69 888 b 165 986 69 940 103 986 b 264 897 229 986 264 940 b 257 865 264 888 260 875 l 186 625 l 149 625 l 76 865 m 313 865 b 306 897 310 875 306 888 b 401 986 306 940 339 986 b 500 897 465 986 500 940 b 493 865 500 888 496 875 l 422 625 l 385 625 l 313 865 "},"'":{"ha":333,"x_min":0,"x_max":0,"o":"m 76 865 b 69 897 74 875 69 888 b 165 986 69 940 103 986 b 264 897 229 986 264 940 b 257 865 264 888 260 875 l 186 625 l 149 625 l 76 865 "},";":{"ha":361,"x_min":0,"x_max":0,"o":"m 69 479 b 174 583 69 536 118 583 b 278 479 231 583 278 536 b 174 375 278 424 231 375 b 69 479 118 375 69 424 m 171 199 b 292 50 268 199 292 113 b 106 -204 292 -89 193 -171 l 92 -174 b 226 -29 175 -139 226 -75 b 69 96 169 -22 69 -8 b 171 199 69 156 119 199 "},"/":{"ha":574,"x_min":0,"x_max":0,"o":"m 136 0 l 94 0 l 438 972 l 479 972 "},"_":{"ha":694,"x_min":0,"x_max":0,"o":"m 611 -125 l 83 -125 l 83 -42 l 611 -42 "},"{":{"ha":514,"x_min":0,"x_max":0,"o":"m 111 486 b 382 278 292 454 382 393 b 361 42 382 199 361 94 b 486 -104 361 -65 375 -101 l 486 -139 b 139 54 260 -139 139 -81 b 175 319 139 150 175 222 b 28 469 175 426 99 458 l 28 504 b 175 653 99 515 175 546 b 139 918 175 750 139 822 b 486 1111 139 1053 260 1111 l 486 1076 b 361 931 375 1074 361 1038 b 382 694 361 878 382 774 b 111 486 382 579 292 518 "},"}":{"ha":514,"x_min":0,"x_max":0,"o":"m 403 486 b 132 694 222 518 132 579 b 153 931 132 774 153 878 b 28 1076 153 1038 139 1074 l 28 1111 b 375 918 254 1111 375 1053 b 339 653 375 822 339 750 b 486 504 339 546 415 515 l 486 469 b 339 319 415 458 339 426 b 375 54 339 222 375 150 b 28 -139 375 -81 254 -139 l 28 -104 b 153 42 139 -101 153 -65 b 132 278 153 94 132 199 b 403 486 132 393 222 454 "},"[":{"ha":493,"x_min":0,"x_max":0,"o":"m 97 -139 l 97 1111 l 465 1111 l 465 1069 l 319 1069 l 319 -97 l 465 -97 l 465 -139 "},"]":{"ha":493,"x_min":0,"x_max":0,"o":"m 28 -97 l 174 -97 l 174 1069 l 28 1069 l 28 1111 l 396 1111 l 396 -139 l 28 -139 "},"(":{"ha":500,"x_min":0,"x_max":0,"o":"m 69 486 b 438 -139 69 228 213 13 l 472 -139 b 292 486 354 50 292 242 b 472 1111 292 731 354 922 l 438 1111 b 69 486 213 960 69 744 "},")":{"ha":500,"x_min":0,"x_max":0,"o":"m 431 486 b 63 1111 431 744 288 960 l 28 1111 b 208 486 146 922 208 731 b 28 -139 208 242 146 50 l 63 -139 b 431 486 288 13 431 228 "},"—":{"ha":972,"x_min":0,"x_max":0,"o":"m 889 333 l 83 333 l 83 417 l 889 417 "},"–":{"ha":764,"x_min":0,"x_max":0,"o":"m 681 333 l 83 333 l 83 417 l 681 417 "},"-":{"ha":556,"x_min":0,"x_max":0,"o":"m 472 333 l 83 333 l 83 417 l 472 417 "},"­":{"ha":556,"x_min":0,"x_max":0,"o":"m 472 333 l 83 333 l 83 417 l 472 417 "},"«":{"ha":729,"x_min":0,"x_max":0,"o":"m 382 185 l 382 142 l 69 357 l 69 386 l 382 603 l 382 558 l 247 374 m 660 185 l 660 142 l 347 357 l 347 386 l 660 603 l 660 558 l 525 374 "},"»":{"ha":729,"x_min":0,"x_max":0,"o":"m 69 558 l 69 603 l 382 386 l 382 357 l 69 142 l 69 185 l 204 374 m 347 558 l 347 603 l 660 386 l 660 357 l 347 142 l 347 185 l 482 374 "},"‹":{"ha":451,"x_min":0,"x_max":0,"o":"m 382 185 l 382 142 l 69 357 l 69 386 l 382 603 l 382 558 l 247 374 "},"›":{"ha":451,"x_min":0,"x_max":0,"o":"m 69 558 l 69 603 l 382 386 l 382 357 l 69 142 l 69 185 l 204 374 "},"„":{"ha":639,"x_min":0,"x_max":0,"o":"m 171 199 b 292 50 268 199 292 113 b 106 -204 292 -89 193 -171 l 92 -174 b 226 -29 175 -139 226 -75 b 69 96 169 -22 69 -8 b 171 199 69 156 119 199 m 449 199 b 569 50 546 199 569 113 b 383 -204 569 -89 471 -171 l 369 -174 b 504 -29 453 -139 504 -75 b 347 96 447 -22 347 -8 b 449 199 347 156 397 199 "},"“":{"ha":639,"x_min":0,"x_max":0,"o":"m 190 583 b 69 732 93 583 69 669 b 256 986 69 871 168 953 l 271 956 b 136 811 188 921 136 857 b 292 686 193 804 292 790 b 190 583 292 626 242 583 m 468 583 b 347 732 371 583 347 669 b 533 986 347 871 446 953 l 549 956 b 414 811 465 921 414 857 b 569 686 471 804 569 790 b 468 583 569 626 519 583 "},"”":{"ha":639,"x_min":0,"x_max":0,"o":"m 171 986 b 292 838 268 986 292 900 b 106 583 292 699 193 617 l 92 614 b 226 758 175 649 226 714 b 69 883 169 765 69 779 b 171 986 69 943 119 986 m 449 986 b 569 838 546 986 569 900 b 383 583 569 699 471 617 l 369 614 b 504 758 453 649 504 714 b 347 883 447 765 347 779 b 449 986 347 943 397 986 "},"‘":{"ha":361,"x_min":0,"x_max":0,"o":"m 190 583 b 69 732 93 583 69 669 b 256 986 69 871 168 953 l 271 956 b 136 811 188 921 136 857 b 292 686 193 804 292 790 b 190 583 292 626 242 583 "},"’":{"ha":361,"x_min":0,"x_max":0,"o":"m 171 986 b 292 838 268 986 292 900 b 106 583 292 699 193 617 l 92 614 b 226 758 175 649 226 714 b 69 883 169 765 69 779 b 171 986 69 943 119 986 "},"‚":{"ha":361,"x_min":0,"x_max":0,"o":"m 171 199 b 292 50 268 199 292 113 b 106 -204 292 -89 193 -171 l 92 -174 b 226 -29 175 -139 226 -75 b 69 96 169 -22 69 -8 b 171 199 69 156 119 199 "}," ":{"ha":306,"x_min":0,"x_max":0,"o":""},"¢":{"ha":944,"x_min":0,"x_max":0,"o":"m 604 139 b 861 292 736 139 814 197 l 889 292 b 578 -12 857 156 783 3 l 576 -167 l 535 -167 l 536 -14 b 69 486 229 -11 69 196 b 540 986 69 771 233 976 l 542 1139 l 583 1139 l 582 986 b 789 932 668 982 738 957 l 831 972 l 861 972 l 889 722 l 861 722 b 582 944 749 874 700 938 l 578 140 b 604 139 586 139 596 139 m 319 507 b 536 146 319 278 415 172 l 540 943 b 319 507 403 929 319 785 "},"¤":{"ha":986,"x_min":0,"x_max":0,"o":"m 646 139 b 903 292 778 139 856 197 l 931 292 b 583 -14 897 149 817 -14 b 125 347 325 -14 169 131 l 28 347 l 28 403 l 115 403 b 111 486 113 429 111 457 b 117 569 111 515 113 543 l 28 569 l 28 625 l 125 625 b 604 986 174 842 338 986 b 832 932 699 986 775 960 l 872 972 l 903 972 l 931 722 l 903 722 b 604 944 785 882 736 944 b 367 625 475 944 389 838 l 604 625 l 604 569 l 363 569 b 361 507 361 550 361 529 b 369 403 361 469 364 435 l 604 403 l 604 347 l 381 347 b 646 139 424 197 529 139 "},"$":{"ha":785,"x_min":0,"x_max":0,"o":"m 729 292 b 382 -14 729 89 561 -7 l 372 -167 l 331 -167 l 340 -14 b 161 36 263 -10 204 11 l 115 0 l 83 0 l 56 250 l 83 250 b 343 28 175 94 243 31 l 365 383 b 69 708 236 460 69 521 b 404 986 69 886 217 985 l 414 1139 l 456 1139 l 446 985 b 599 938 514 979 561 961 l 643 972 l 674 972 l 701 722 l 674 722 b 443 943 590 868 532 933 l 424 633 b 729 292 554 554 729 486 m 285 817 b 383 660 285 747 326 700 l 401 943 b 285 817 347 938 285 903 m 385 31 b 514 188 463 43 514 103 b 406 358 514 265 468 315 l 385 31 "},"€":{"ha":986,"x_min":0,"x_max":0,"o":"m 646 139 b 903 292 778 139 856 197 l 931 292 b 583 -14 897 149 817 -14 b 125 347 325 -14 169 131 l 28 347 l 28 403 l 115 403 b 111 486 113 429 111 457 b 117 569 111 515 113 543 l 28 569 l 28 625 l 125 625 b 604 986 174 842 338 986 b 832 932 699 986 775 960 l 872 972 l 903 972 l 931 722 l 903 722 b 604 944 785 882 736 944 b 367 625 475 944 389 838 l 604 625 l 604 569 l 363 569 b 361 507 361 550 361 529 b 369 403 361 469 364 435 l 604 403 l 604 347 l 381 347 b 646 139 424 197 529 139 "},"ƒ":{"ha":719,"x_min":0,"x_max":0,"o":"m 642 1028 b 789 949 739 1028 789 1001 b 696 854 789 890 747 854 b 621 996 635 854 615 917 b 529 768 576 985 553 936 l 521 715 l 660 715 l 653 660 l 514 660 l 417 -28 b 79 -306 394 -190 281 -306 b -69 -226 -19 -306 -69 -279 b 25 -132 -69 -168 -28 -132 b 100 -274 86 -132 104 -194 b 192 -46 144 -262 168 -214 l 292 660 l 222 660 l 226 694 l 299 715 l 304 750 b 642 1028 326 913 440 1028 "},"£":{"ha":819,"x_min":0,"x_max":0,"o":"m 778 292 b 574 -14 764 175 729 -14 b 331 115 468 -14 408 71 b 143 -14 282 40 217 -14 b 56 65 85 -14 56 24 b 275 192 56 176 231 192 l 301 192 b 322 276 315 215 322 240 b 224 458 322 339 275 396 l 56 458 l 56 514 l 179 514 b 103 710 138 571 103 633 b 428 986 103 890 232 986 b 649 932 526 986 597 960 l 689 972 l 719 972 l 747 722 l 719 722 b 442 944 608 875 553 944 b 322 810 388 944 322 903 b 404 514 322 721 379 643 l 583 514 l 583 458 l 413 458 b 415 381 415 435 415 408 b 369 188 414 321 397 251 b 608 161 468 179 560 161 b 747 292 682 161 726 196 "},"¥":{"ha":896,"x_min":0,"x_max":0,"o":"m 882 972 l 882 944 l 817 904 b 794 879 803 897 800 892 l 589 414 l 764 414 l 764 358 l 583 358 l 583 63 b 597 42 583 49 583 46 l 653 28 l 653 0 l 278 0 l 278 28 l 333 42 b 347 63 347 46 347 49 l 347 358 l 167 358 l 167 414 l 326 414 l 86 907 b 63 931 79 921 78 926 l 14 944 l 14 972 l 407 972 l 407 944 l 351 931 b 340 907 336 928 333 921 l 560 438 l 754 879 b 743 906 760 893 756 900 l 654 944 l 654 972 "},"≈":{"ha":792,"x_min":0,"x_max":0,"o":"m 139 490 b 294 689 176 650 229 689 b 550 639 351 689 501 639 b 618 685 576 639 603 651 l 653 685 b 501 490 633 549 567 490 b 239 540 436 490 299 540 b 175 489 213 540 189 526 l 139 490 m 139 242 b 294 440 176 401 229 440 b 550 390 351 440 501 390 b 618 436 576 390 603 403 l 653 436 b 501 242 633 300 567 242 b 239 292 436 242 299 292 b 175 240 213 292 189 278 l 139 242 "},"~":{"ha":792,"x_min":0,"x_max":0,"o":"m 139 385 b 294 583 176 544 229 583 b 550 533 351 583 501 533 b 618 579 576 533 603 546 l 653 579 b 501 385 633 443 567 385 b 239 435 436 385 299 435 b 175 383 213 435 189 421 l 139 385 "},"÷":{"ha":694,"x_min":0,"x_max":0,"o":"m 243 715 b 347 819 243 772 292 819 b 451 715 404 819 451 772 b 347 611 451 660 404 611 b 243 715 292 611 243 660 m 611 444 l 83 444 l 83 528 l 611 528 m 243 257 b 347 361 243 314 292 361 b 451 257 404 361 451 314 b 347 153 451 201 404 153 b 243 257 292 153 243 201 "},"=":{"ha":694,"x_min":0,"x_max":0,"o":"m 611 556 l 83 556 l 83 639 l 611 639 m 611 333 l 83 333 l 83 417 l 611 417 "},">":{"ha":694,"x_min":0,"x_max":0,"o":"m 611 528 l 611 444 l 83 250 l 83 333 l 499 486 l 83 639 l 83 722 "},"≥":{"ha":694,"x_min":0,"x_max":0,"o":"m 611 528 l 611 444 l 83 250 l 83 333 l 499 486 l 83 639 l 83 722 m 83 222 l 611 222 l 611 139 l 83 139 "},"∞":{"ha":1215,"x_min":0,"x_max":0,"o":"m 903 701 b 1132 486 1049 701 1132 604 b 900 271 1132 368 1049 271 b 608 411 765 271 681 336 b 315 271 535 336 450 271 b 83 486 167 271 83 368 b 313 701 83 604 167 701 b 608 549 453 701 535 628 b 903 701 681 628 763 701 m 315 354 b 544 479 417 354 483 411 b 313 618 478 553 413 618 b 167 486 221 618 167 567 b 315 354 167 406 221 354 m 900 354 b 1049 486 994 354 1049 406 b 903 618 1049 567 994 618 b 671 479 803 618 738 553 b 900 354 732 411 799 354 "},"∫":{"ha":486,"x_min":0,"x_max":0,"o":"m 504 1028 b 651 949 601 1028 651 1001 b 558 854 651 890 610 854 b 483 996 497 854 478 917 b 392 768 439 985 415 936 l 279 -28 b -60 -306 257 -190 143 -306 b -207 -226 -157 -306 -207 -279 b -114 -132 -207 -168 -165 -132 b -39 -274 -53 -132 -33 -194 b 54 -46 7 -262 31 -214 l 167 750 b 504 1028 189 913 303 1028 "},"<":{"ha":694,"x_min":0,"x_max":0,"o":"m 611 639 l 196 486 l 611 333 l 611 250 l 83 444 l 83 528 l 611 722 "},"≤":{"ha":694,"x_min":0,"x_max":0,"o":"m 611 639 l 196 486 l 611 333 l 611 250 l 83 444 l 83 528 l 611 722 m 83 222 l 611 222 l 611 139 l 83 139 "},"¬":{"ha":694,"x_min":0,"x_max":0,"o":"m 528 222 l 528 444 l 83 444 l 83 528 l 611 528 l 611 222 "},"−":{"ha":694,"x_min":0,"x_max":0,"o":"m 611 444 l 83 444 l 83 528 l 611 528 "},"×":{"ha":694,"x_min":0,"x_max":0,"o":"m 347 428 l 171 250 l 111 310 l 289 486 l 111 663 l 171 722 l 347 544 l 524 722 l 583 663 l 406 486 l 583 310 l 524 250 "},"≠":{"ha":694,"x_min":0,"x_max":0,"o":"m 385 556 l 351 417 l 611 417 l 611 333 l 331 333 l 264 56 l 222 56 l 289 333 l 83 333 l 83 417 l 310 417 l 343 556 l 83 556 l 83 639 l 364 639 l 431 917 l 472 917 l 406 639 l 611 639 l 611 556 "},"∂":{"ha":847,"x_min":0,"x_max":0,"o":"m 450 986 b 793 588 664 986 793 831 b 336 -14 793 347 664 -14 b 42 247 163 -14 42 93 b 422 597 42 401 132 597 b 550 578 467 597 510 590 b 558 704 556 631 558 675 b 401 939 558 885 494 939 b 268 899 347 939 296 919 b 322 813 306 876 322 846 b 221 717 322 768 283 717 b 146 789 171 717 146 747 b 450 986 146 868 236 986 m 346 28 b 546 539 457 28 521 329 b 469 551 521 546 496 551 b 271 140 306 551 271 274 b 346 28 271 60 296 28 "},"%":{"ha":1088,"x_min":0,"x_max":0,"o":"m 301 986 b 533 739 468 986 533 869 b 301 492 533 610 468 492 b 69 739 135 492 69 610 b 301 986 69 869 135 986 m 333 0 l 292 0 l 743 972 l 785 972 m 301 964 b 228 739 247 964 228 893 b 301 514 228 585 247 514 b 375 739 356 514 375 585 b 301 964 375 893 356 964 m 786 481 b 1018 233 953 481 1018 364 b 786 -14 1018 104 953 -14 b 554 233 619 -14 554 104 b 786 481 554 364 619 481 m 786 458 b 713 233 732 458 713 388 b 786 8 713 79 732 8 b 860 233 840 8 860 79 b 786 458 860 388 840 458 "},"‰":{"ha":1607,"x_min":0,"x_max":0,"o":"m 301 986 b 533 739 468 986 533 869 b 301 492 533 610 468 492 b 69 739 135 492 69 610 b 301 986 69 869 135 986 m 333 0 l 292 0 l 743 972 l 785 972 m 301 964 b 228 739 247 964 228 893 b 301 514 228 585 247 514 b 375 739 356 514 375 585 b 301 964 375 893 356 964 m 786 481 b 1018 233 953 481 1018 364 b 786 -14 1018 104 953 -14 b 554 233 619 -14 554 104 b 786 481 554 364 619 481 m 1306 481 b 1538 233 1472 481 1538 364 b 1306 -14 1538 104 1472 -14 b 1074 233 1139 -14 1074 104 b 1306 481 1074 364 1139 481 m 786 458 b 713 233 732 458 713 388 b 786 8 713 79 732 8 b 860 233 840 8 860 79 b 786 458 860 388 840 458 m 1306 458 b 1232 233 1251 458 1232 388 b 1306 8 1232 79 1251 8 b 1379 233 1360 8 1379 79 b 1306 458 1379 388 1360 458 "},"+":{"ha":694,"x_min":0,"x_max":0,"o":"m 389 444 l 389 222 l 306 222 l 306 444 l 83 444 l 83 528 l 306 528 l 306 750 l 389 750 l 389 528 l 611 528 l 611 444 "},"±":{"ha":694,"x_min":0,"x_max":0,"o":"m 389 444 l 389 222 l 611 222 l 611 139 l 83 139 l 83 222 l 306 222 l 306 444 l 83 444 l 83 528 l 306 528 l 306 750 l 389 750 l 389 528 l 611 528 l 611 444 "},"∏":{"ha":1007,"x_min":0,"x_max":0,"o":"m 914 931 b 900 910 900 928 900 924 l 900 -229 b 914 -250 900 -243 900 -247 l 969 -264 l 969 -292 l 594 -292 l 594 -264 l 650 -250 b 664 -229 664 -247 664 -243 l 664 928 l 344 928 l 344 -229 b 358 -250 344 -243 344 -247 l 414 -264 l 414 -292 l 39 -292 l 39 -264 l 94 -250 b 108 -229 108 -247 108 -243 l 108 910 b 94 931 108 924 108 928 l 39 944 l 39 972 l 969 972 l 969 944 l 914 931 "},"√":{"ha":1042,"x_min":0,"x_max":0,"o":"m 700 201 l 946 972 l 986 972 l 671 -7 l 538 -7 l 326 560 l 83 560 l 83 604 l 550 604 "},"∑":{"ha":838,"x_min":0,"x_max":0,"o":"m 761 0 l 53 0 l 53 39 l 285 479 l 49 935 l 49 972 l 729 972 l 757 722 l 729 722 l 576 907 b 507 935 551 936 528 935 l 303 935 l 542 478 l 314 39 l 539 39 b 608 67 560 39 583 36 l 761 250 l 789 250 "},"◊":{"ha":861,"x_min":0,"x_max":0,"o":"m 431 986 l 722 486 l 431 -14 l 139 486 m 431 63 l 678 486 l 431 910 l 183 486 "},"|":{"ha":292,"x_min":0,"x_max":0,"o":"m 167 1139 l 167 -167 l 125 -167 l 125 1139 "},"¦":{"ha":292,"x_min":0,"x_max":0,"o":"m 167 1139 l 167 639 l 125 639 l 125 1139 m 167 333 l 167 -167 l 125 -167 l 125 333 "},"@":{"ha":1236,"x_min":0,"x_max":0,"o":"m 944 590 l 872 206 b 918 113 861 147 872 113 b 1090 429 986 113 1090 231 b 700 799 1090 661 904 799 b 257 303 454 799 257 574 b 685 -112 257 42 431 -112 b 996 -10 788 -112 904 -83 l 1007 -32 b 625 -168 907 -115 768 -168 b 90 290 301 -168 90 29 b 692 832 90 658 415 832 b 1146 435 925 832 1146 701 b 844 58 1146 206 996 58 b 713 164 756 58 717 110 b 546 56 682 96 619 56 b 392 244 451 56 392 129 b 690 606 392 443 525 606 b 842 553 760 606 807 578 l 921 590 m 778 551 b 711 575 758 565 736 575 b 550 226 625 575 550 386 b 610 110 550 163 565 110 b 714 232 646 110 697 146 l 778 551 "},"&":{"ha":972,"x_min":0,"x_max":0,"o":"m 972 28 l 972 0 l 683 0 l 618 79 b 333 -14 540 22 444 -14 b 49 218 160 -14 49 88 b 285 486 49 346 142 424 b 153 750 199 585 153 667 b 451 986 153 901 297 986 b 694 792 581 986 694 922 b 476 563 694 701 632 614 l 729 261 b 799 457 775 335 799 414 b 774 486 799 471 788 479 l 701 528 l 701 556 l 951 556 l 951 528 l 876 486 b 838 415 854 475 844 440 b 754 231 818 350 790 288 l 864 99 b 931 39 899 58 910 44 m 468 944 b 358 814 396 944 358 882 b 456 589 358 732 390 668 b 581 800 561 651 581 739 b 468 944 581 892 539 944 m 443 83 b 585 119 496 83 543 97 l 310 456 b 243 276 265 413 243 343 b 443 83 243 151 324 83 "},"¶":{"ha":861,"x_min":0,"x_max":0,"o":"m 521 0 l 292 0 l 292 28 l 347 42 b 361 63 361 46 361 49 l 361 393 b 28 692 153 393 28 532 b 361 972 28 865 153 972 l 521 972 m 750 63 b 764 42 750 49 750 46 l 819 28 l 819 0 l 590 0 l 590 972 l 819 972 l 819 944 l 764 931 b 750 910 750 928 750 924 l 750 63 "},"©":{"ha":1139,"x_min":0,"x_max":0,"o":"m 569 986 b 1069 486 846 986 1069 763 b 569 -14 1069 210 846 -14 b 69 486 293 -14 69 210 b 569 986 69 763 293 986 m 569 28 b 1028 486 824 28 1028 233 b 569 944 1028 740 824 944 b 111 486 317 944 111 740 b 569 28 111 233 317 28 m 618 754 b 486 529 550 754 486 697 b 651 315 486 358 583 315 b 799 401 726 315 775 354 l 818 401 b 586 188 810 301 725 188 b 289 488 393 188 289 313 b 607 788 289 663 396 788 b 757 746 667 788 721 765 l 772 779 l 794 779 l 811 617 l 792 617 b 618 754 726 710 697 754 "},"®":{"ha":1139,"x_min":0,"x_max":0,"o":"m 569 986 b 1069 486 846 986 1069 763 b 569 -14 1069 210 846 -14 b 69 486 293 -14 69 210 b 569 986 69 763 293 986 m 569 28 b 1028 486 824 28 1028 233 b 569 944 1028 740 824 944 b 111 486 317 944 111 740 b 569 28 111 233 317 28 m 843 233 b 860 219 846 222 850 222 l 868 214 l 868 194 l 651 194 l 619 324 b 558 450 594 425 586 450 l 519 450 l 519 233 b 528 221 519 225 519 224 l 549 214 l 549 194 l 301 194 l 301 214 l 322 221 b 331 233 331 224 331 225 l 331 739 b 322 751 331 747 331 749 l 301 758 l 301 778 l 608 778 b 814 619 733 778 814 732 b 643 460 814 531 763 476 b 826 297 774 446 801 393 l 843 233 m 536 753 b 519 736 524 753 519 749 l 519 476 l 549 476 b 614 614 593 476 614 536 b 553 753 614 688 590 753 l 536 753 "},"§":{"ha":799,"x_min":0,"x_max":0,"o":"m 624 303 b 729 125 685 264 729 211 b 389 -153 729 -54 579 -153 b 201 -104 301 -153 244 -131 l 157 -139 l 125 -139 l 97 111 l 125 111 b 382 -111 217 -49 278 -111 b 514 17 439 -111 514 -78 b 69 444 514 210 69 169 b 175 669 69 546 111 619 b 69 847 114 708 69 761 b 410 1125 69 1026 219 1125 b 597 1076 497 1125 554 1103 l 643 1111 l 674 1111 l 701 861 l 674 861 b 417 1083 582 1021 521 1083 b 285 956 360 1083 285 1050 b 729 528 285 763 729 803 b 624 303 729 426 688 353 m 285 550 b 503 361 285 446 394 407 b 514 424 510 379 514 400 b 296 611 514 526 404 565 b 285 550 289 593 285 572 "},"™":{"ha":1293,"x_min":0,"x_max":0,"o":"m 42 818 l 60 818 l 161 932 b 196 949 178 951 183 949 l 199 949 b 215 932 210 949 215 944 l 215 426 b 207 414 215 418 215 417 l 176 407 l 176 389 l 415 389 l 415 407 l 386 414 b 378 426 378 417 378 418 l 378 932 b 394 949 378 944 383 949 l 397 949 b 432 932 410 949 415 951 l 533 818 l 551 818 l 535 972 l 58 972 m 1215 947 b 1207 935 1207 944 1207 943 l 1207 426 b 1215 414 1207 418 1207 417 l 1244 407 l 1244 389 l 1006 389 l 1006 407 l 1035 414 b 1043 426 1043 417 1043 418 l 1043 896 l 901 385 l 860 385 l 671 871 l 671 447 b 679 435 671 439 672 439 l 750 407 l 750 389 l 576 389 l 576 407 l 636 435 b 644 447 644 439 644 439 l 644 935 b 636 947 644 943 644 946 l 576 956 l 576 972 l 810 972 l 947 629 l 1040 972 l 1244 972 l 1244 956 l 1215 947 "},"°":{"ha":389,"x_min":0,"x_max":0,"o":"m 194 736 b 69 861 125 736 69 792 b 194 986 69 931 125 986 b 319 861 264 986 319 931 b 194 736 319 792 264 736 m 194 778 b 278 861 242 778 278 814 b 194 944 278 908 242 944 b 111 861 147 944 111 908 b 194 778 111 814 147 778 "},"^":{"ha":681,"x_min":0,"x_max":0,"o":"m 340 501 l 563 411 l 597 411 l 382 633 l 299 633 l 83 411 l 118 411 "},"†":{"ha":833,"x_min":0,"x_max":0,"o":"m 689 757 b 778 661 732 757 778 724 b 689 563 778 597 732 563 b 657 569 679 563 667 567 l 497 617 b 438 0 474 432 443 197 l 396 0 b 335 617 389 197 358 432 l 176 569 b 144 563 167 567 154 563 b 56 661 101 563 56 597 b 144 757 56 724 101 757 b 176 750 154 757 167 753 l 324 706 b 306 903 314 794 306 865 b 417 1014 306 982 353 1014 b 528 903 481 1014 528 982 b 508 706 528 865 519 794 l 657 750 b 689 757 667 753 679 757 "},"‡":{"ha":833,"x_min":0,"x_max":0,"o":"m 689 424 b 778 325 732 424 778 389 b 689 229 778 263 732 229 b 657 236 679 229 667 233 l 486 288 b 528 97 508 204 528 132 b 417 -14 528 18 481 -14 b 306 97 353 -14 306 18 b 347 288 306 132 325 204 l 176 236 b 144 229 167 233 154 229 b 56 325 101 229 56 263 b 144 424 56 389 101 424 b 176 417 154 424 167 419 l 367 360 b 396 500 378 407 389 456 b 369 626 390 540 381 583 l 176 569 b 144 563 167 567 154 563 b 56 661 101 563 56 597 b 144 757 56 724 101 757 b 176 750 154 757 167 753 l 351 697 b 306 903 328 786 306 865 b 417 1014 306 982 353 1014 b 528 903 481 1014 528 982 b 482 699 528 865 506 786 l 657 750 b 689 757 667 753 679 757 b 778 661 732 757 778 724 b 689 563 778 597 732 563 b 657 569 679 563 667 567 l 464 626 b 438 500 454 583 444 540 b 468 360 444 456 456 407 l 657 417 b 689 424 667 419 679 424 "},"´":{"ha":500,"x_min":0,"x_max":0,"o":"m 139 771 l 238 988 b 294 1021 247 1006 267 1021 b 361 958 338 1022 361 992 b 329 897 361 939 351 914 l 164 771 "},"˘":{"ha":581,"x_min":0,"x_max":0,"o":"m 289 785 b 118 981 176 785 118 879 l 158 981 b 289 896 172 917 233 896 b 421 981 347 896 407 917 l 461 981 b 289 785 461 879 401 785 "},"ˇ":{"ha":681,"x_min":0,"x_max":0,"o":"m 139 993 l 299 771 l 382 771 l 542 993 l 507 993 l 340 903 l 174 993 "},"¸":{"ha":486,"x_min":0,"x_max":0,"o":"m 194 -50 b 347 -162 256 -50 347 -75 b 139 -292 347 -239 294 -292 l 139 -257 b 222 -201 192 -257 222 -246 b 153 -143 222 -164 201 -143 l 153 7 l 194 7 "},"ˆ":{"ha":681,"x_min":0,"x_max":0,"o":"m 340 875 l 507 785 l 542 785 l 382 1007 l 299 1007 l 139 785 l 174 785 "},"¨":{"ha":792,"x_min":0,"x_max":0,"o":"m 139 896 b 250 1007 139 961 188 1007 b 361 896 313 1007 361 961 b 250 785 361 828 313 785 b 139 896 188 785 139 828 m 431 896 b 542 1007 431 961 479 1007 b 653 896 604 1007 653 961 b 542 785 653 828 604 785 b 431 896 479 785 431 828 "},"˙":{"ha":528,"x_min":0,"x_max":0,"o":"m 139 903 b 264 1021 139 967 188 1021 b 389 903 339 1021 389 967 b 264 785 389 838 339 785 b 139 903 188 785 139 838 "},"`":{"ha":500,"x_min":0,"x_max":0,"o":"m 172 897 b 139 958 150 914 139 939 b 206 1021 139 992 164 1022 b 263 988 233 1021 254 1006 l 361 771 l 338 771 "},"˝":{"ha":708,"x_min":0,"x_max":0,"o":"m 139 771 l 238 988 b 294 1021 247 1006 267 1021 b 361 958 338 1022 361 992 b 329 897 361 939 351 914 l 164 771 m 347 771 l 446 988 b 503 1021 456 1006 475 1021 b 569 958 546 1022 569 992 b 538 897 569 939 560 914 l 372 771 "},"¯":{"ha":656,"x_min":0,"x_max":0,"o":"m 536 826 l 118 826 l 118 885 l 536 885 "},"˛":{"ha":478,"x_min":0,"x_max":0,"o":"m 360 -246 b 244 -296 333 -275 286 -296 b 118 -183 156 -296 118 -249 b 265 0 118 -124 163 -58 l 303 0 b 232 -149 257 -43 232 -96 b 360 -218 232 -212 281 -251 l 360 -246 "},"˚":{"ha":483,"x_min":0,"x_max":0,"o":"m 118 901 b 242 1024 118 969 169 1024 b 364 901 310 1024 364 969 b 242 778 364 831 310 778 b 118 901 169 778 118 831 m 157 901 b 243 817 157 856 192 817 b 328 901 293 817 328 856 b 243 986 328 950 290 986 b 157 901 192 986 157 950 "},"˜":{"ha":792,"x_min":0,"x_max":0,"o":"m 139 785 b 294 983 176 944 229 983 b 550 933 351 983 501 933 b 618 979 576 933 603 946 l 653 979 b 501 785 633 843 567 785 b 239 835 436 785 299 835 b 175 783 213 835 189 821 l 139 785 "}}}
